<?xml version="1.0" encoding="UTF-8" standalone="no"?>
<!DOCTYPE svg PUBLIC "-//W3C//DTD SVG 1.1//EN"
 "http://www.w3.org/Graphics/SVG/1.1/DTD/svg11.dtd">
<!-- Generated by graphviz version 2.40.1 (20161225.0304)
 -->
<!-- Title: gomod Pages: 1 -->
<svg width="1553pt" height="1496pt"
 viewBox="0.00 0.00 1553.00 1496.00" xmlns="http://www.w3.org/2000/svg" xmlns:xlink="http://www.w3.org/1999/xlink">
<g id="graph0" class="graph" transform="scale(1 1) rotate(0) translate(4 1492)">
<title>gomod</title>
<polygon fill="#ffffff" stroke="transparent" points="-4,4 -4,-1492 1549,-1492 1549,4 -4,4"/>
<g id="clust1" class="cluster">
<title>cluster_1</title>
<polygon fill="none" stroke="#c0c0c0" points="1051.5,-1076 1051.5,-1205 1221.5,-1205 1221.5,-1076 1051.5,-1076"/>
<text text-anchor="middle" x="1136.5" y="-1189.8" font-family="Times,serif" font-size="14.00" fill="#000000">github.com/fsnotify/fsnotify</text>
</g>
<g id="clust2" class="cluster">
<title>cluster_2</title>
<polygon fill="none" stroke="#c0c0c0" points="767.5,-1351 767.5,-1480 958.5,-1480 958.5,-1351 767.5,-1351"/>
<text text-anchor="middle" x="863" y="-1464.8" font-family="Times,serif" font-size="14.00" fill="#000000">git.fractalqb.de/fractalqb/c4hgol</text>
</g>
<g id="clust3" class="cluster">
<title>cluster_3</title>
<polygon fill="none" stroke="#c0c0c0" points="470,-249 470,-378 719,-378 719,-249 470,-249"/>
<text text-anchor="middle" x="594.5" y="-362.8" font-family="Times,serif" font-size="14.00" fill="#000000">golang.org/x/image</text>
</g>
<g id="clust4" class="cluster">
<title>cluster_4</title>
<polygon fill="none" stroke="#c0c0c0" points="1288,-1076 1288,-1259 1537,-1259 1537,-1076 1288,-1076"/>
<text text-anchor="middle" x="1412.5" y="-1243.8" font-family="Times,serif" font-size="14.00" fill="#000000">golang.org/x/sys</text>
</g>
<!-- 24 -->
<g id="node1" class="node">
<title>24</title>
<polygon fill="none" stroke="#c0c0c0" points="1232,-94 1041,-94 1041,-56 1232,-56 1232,-94"/>
<text text-anchor="middle" x="1136.5" y="-78.8" font-family="Times,serif" font-size="14.00" fill="#000000">github.com/russross/blackfriday</text>
<text text-anchor="middle" x="1136.5" y="-63.8" font-family="Times,serif" font-size="14.00" fill="#000000">v1.5.2</text>
</g>
<!-- 26 -->
<g id="node2" class="node">
<title>26</title>
<polygon fill="none" stroke="#c0c0c0" points="1208.5,-1028 1064.5,-1028 1064.5,-990 1208.5,-990 1208.5,-1028"/>
<text text-anchor="middle" x="1136.5" y="-1012.8" font-family="Times,serif" font-size="14.00" fill="#000000">github.com/coreos/etcd</text>
<text text-anchor="middle" x="1136.5" y="-997.8" font-family="Times,serif" font-size="14.00" fill="#000000">v3.3.10+incompatible</text>
</g>
<!-- 7 -->
<g id="node3" class="node">
<title>7</title>
<text text-anchor="middle" x="1136.5" y="-1152.3" font-family="Times,serif" font-size="14.00" fill="#000000">v1.4.9</text>
</g>
<!-- 15 -->
<g id="node44" class="node">
<title>15</title>
<text text-anchor="middle" x="1412.5" y="-1152.3" font-family="Times,serif" font-size="14.00" fill="#c0c0c0">v0.0.0&#45;20191005200804&#45;aed5e4c7ecf9</text>
</g>
<!-- 7&#45;&gt;15 -->
<g id="edge16" class="edge">
<title>7&#45;&gt;15</title>
<path fill="none" stroke="#000000" d="M1163.7193,-1156C1192.8604,-1156 1241.184,-1156 1287.5298,-1156"/>
<polygon fill="#000000" stroke="#000000" points="1287.6915,-1159.5001 1297.6914,-1156 1287.6914,-1152.5001 1287.6915,-1159.5001"/>
</g>
<!-- 29 -->
<g id="node4" class="node">
<title>29</title>
<text text-anchor="middle" x="1136.5" y="-1098.3" font-family="Times,serif" font-size="14.00" fill="#c0c0c0">v1.4.7</text>
</g>
<!-- 4 -->
<g id="node5" class="node">
<title>4</title>
<polygon fill="none" stroke="#c0c0c0" points="442,-1318 250,-1318 250,-1280 442,-1280 442,-1318"/>
<text text-anchor="middle" x="346" y="-1302.8" font-family="Times,serif" font-size="14.00" fill="#000000">git.fractalqb.de/fractalqb/qbsllm</text>
<text text-anchor="middle" x="346" y="-1287.8" font-family="Times,serif" font-size="14.00" fill="#000000">v0.11.1</text>
</g>
<!-- 11 -->
<g id="node7" class="node">
<title>11</title>
<polygon fill="none" stroke="#c0c0c0" points="693.5,-1365 495.5,-1365 495.5,-1327 693.5,-1327 693.5,-1365"/>
<text text-anchor="middle" x="594.5" y="-1349.8" font-family="Times,serif" font-size="14.00" fill="#000000">git.fractalqb.de/fractalqb/c4qblog</text>
<text text-anchor="middle" x="594.5" y="-1334.8" font-family="Times,serif" font-size="14.00" fill="#000000">v0.9.6</text>
</g>
<!-- 4&#45;&gt;11 -->
<g id="edge11" class="edge">
<title>4&#45;&gt;11</title>
<path fill="none" stroke="#000000" d="M442.0766,-1317.1714C456.2807,-1319.8579 471.0033,-1322.6425 485.4478,-1325.3744"/>
<polygon fill="#000000" stroke="#000000" points="484.9173,-1328.8361 495.3936,-1327.2555 486.2182,-1321.958 484.9173,-1328.8361"/>
</g>
<!-- 10 -->
<g id="node11" class="node">
<title>10</title>
<text text-anchor="middle" x="862.5" y="-1373.3" font-family="Times,serif" font-size="14.00" fill="#c0c0c0">v0.10.3</text>
</g>
<!-- 4&#45;&gt;10 -->
<g id="edge10" class="edge">
<title>4&#45;&gt;10</title>
<path fill="none" stroke="#000000" d="M368.8937,-1318.1057C392.5125,-1336.4814 431.2666,-1363.0377 470,-1374 594.9907,-1409.3748 751.4684,-1393.7308 823.2369,-1383.4338"/>
<polygon fill="#000000" stroke="#000000" points="823.8172,-1386.8862 833.1972,-1381.9601 822.7926,-1379.9615 823.8172,-1386.8862"/>
</g>
<!-- 5 -->
<g id="node19" class="node">
<title>5</title>
<polygon fill="none" stroke="#c0c0c0" points="684,-1271 505,-1271 505,-1233 684,-1233 684,-1271"/>
<text text-anchor="middle" x="594.5" y="-1255.8" font-family="Times,serif" font-size="14.00" fill="#000000">git.fractalqb.de/fractalqb/sllm</text>
<text text-anchor="middle" x="594.5" y="-1240.8" font-family="Times,serif" font-size="14.00" fill="#000000">v0.12.0</text>
</g>
<!-- 4&#45;&gt;5 -->
<g id="edge13" class="edge">
<title>4&#45;&gt;5</title>
<path fill="none" stroke="#000000" d="M442.0766,-1280.8286C459.3163,-1277.5679 477.32,-1274.1628 494.663,-1270.8827"/>
<polygon fill="#000000" stroke="#000000" points="495.6118,-1274.2653 504.7872,-1268.9678 494.3109,-1267.3873 495.6118,-1274.2653"/>
</g>
<!-- 12 -->
<g id="node28" class="node">
<title>12</title>
<polygon fill="none" stroke="#c0c0c0" points="955,-1330 770,-1330 770,-1292 955,-1292 955,-1330"/>
<text text-anchor="middle" x="862.5" y="-1314.8" font-family="Times,serif" font-size="14.00" fill="#000000">git.fractalqb.de/fractalqb/qblog</text>
<text text-anchor="middle" x="862.5" y="-1299.8" font-family="Times,serif" font-size="14.00" fill="#000000">v0.10.1</text>
</g>
<!-- 4&#45;&gt;12 -->
<g id="edge12" class="edge">
<title>4&#45;&gt;12</title>
<path fill="none" stroke="#000000" d="M442.2413,-1301.236C532.5425,-1303.334 667.175,-1306.462 759.584,-1308.6089"/>
<polygon fill="#000000" stroke="#000000" points="759.7153,-1312.1128 769.7939,-1308.8461 759.8779,-1305.1147 759.7153,-1312.1128"/>
</g>
<!-- 6 -->
<g id="node6" class="node">
<title>6</title>
<polygon fill="none" stroke="#c0c0c0" points="441.5,-816 250.5,-816 250.5,-778 441.5,-778 441.5,-816"/>
<text text-anchor="middle" x="346" y="-800.8" font-family="Times,serif" font-size="14.00" fill="#000000">github.com/anthonynsimon/bild</text>
<text text-anchor="middle" x="346" y="-785.8" font-family="Times,serif" font-size="14.00" fill="#000000">v0.13.0</text>
</g>
<!-- 13 -->
<g id="node18" class="node">
<title>13</title>
<polygon fill="none" stroke="#c0c0c0" points="667.5,-557 521.5,-557 521.5,-519 667.5,-519 667.5,-557"/>
<text text-anchor="middle" x="594.5" y="-541.8" font-family="Times,serif" font-size="14.00" fill="#000000">github.com/spf13/cobra</text>
<text text-anchor="middle" x="594.5" y="-526.8" font-family="Times,serif" font-size="14.00" fill="#000000">v0.0.5</text>
</g>
<!-- 6&#45;&gt;13 -->
<g id="edge14" class="edge">
<title>6&#45;&gt;13</title>
<path fill="none" stroke="#000000" d="M427.6061,-777.7779C432.6761,-775.2088 437.5292,-772.2979 442,-769 514.9022,-715.2239 563.1307,-615.3866 583.4925,-566.4852"/>
<polygon fill="#000000" stroke="#000000" points="586.7701,-567.7166 587.3031,-557.1352 580.2878,-565.0747 586.7701,-567.7166"/>
</g>
<!-- 14 -->
<g id="node31" class="node">
<title>14</title>
<text text-anchor="middle" x="594.5" y="-325.3" font-family="Times,serif" font-size="14.00" fill="#c0c0c0">v0.0.0&#45;20190703141733&#45;d6a02ce849c9</text>
</g>
<!-- 6&#45;&gt;14 -->
<g id="edge15" class="edge">
<title>6&#45;&gt;14</title>
<path fill="none" stroke="#000000" d="M432.6239,-777.8758C436.0543,-775.2713 439.2127,-772.327 442,-769 479.1767,-724.6238 449.8719,-564.2791 470,-510 492.7381,-448.6826 540.8709,-388.3036 570.1786,-355.1149"/>
<polygon fill="#000000" stroke="#000000" points="573.1325,-357.0629 577.1972,-347.2789 567.9182,-352.3926 573.1325,-357.0629"/>
</g>
<!-- 11&#45;&gt;10 -->
<g id="edge18" class="edge">
<title>11&#45;&gt;10</title>
<path fill="none" stroke="#000000" d="M693.5319,-1357.4552C738.6649,-1362.6758 789.4885,-1368.5546 823.5002,-1372.4888"/>
<polygon fill="#000000" stroke="#000000" points="823.1549,-1375.9721 833.4909,-1373.6445 823.9593,-1369.0185 823.1549,-1375.9721"/>
</g>
<!-- 11&#45;&gt;12 -->
<g id="edge19" class="edge">
<title>11&#45;&gt;12</title>
<path fill="none" stroke="#000000" d="M693.5319,-1333.0667C715.0284,-1330.2593 737.8159,-1327.2834 759.463,-1324.4563"/>
<polygon fill="#000000" stroke="#000000" points="760.1898,-1327.8912 769.6523,-1323.1256 759.2832,-1320.9502 760.1898,-1327.8912"/>
</g>
<!-- 39 -->
<g id="node8" class="node">
<title>39</title>
<polygon fill="none" stroke="#c0c0c0" points="1259,-972 1014,-972 1014,-934 1259,-934 1259,-972"/>
<text text-anchor="middle" x="1136.5" y="-956.8" font-family="Times,serif" font-size="14.00" fill="#000000">github.com/xordataexchange/crypt</text>
<text text-anchor="middle" x="1136.5" y="-941.8" font-family="Times,serif" font-size="14.00" fill="#000000">v0.0.3&#45;0.20170626215501&#45;b2862e3d0a77</text>
</g>
<!-- 42 -->
<g id="node9" class="node">
<title>42</title>
<polygon fill="none" stroke="#c0c0c0" points="1530,-150 1295,-150 1295,-112 1530,-112 1530,-150"/>
<text text-anchor="middle" x="1412.5" y="-134.8" font-family="Times,serif" font-size="14.00" fill="#000000">gopkg.in/check.v1</text>
<text text-anchor="middle" x="1412.5" y="-119.8" font-family="Times,serif" font-size="14.00" fill="#000000">v0.0.0&#45;20161208181325&#45;20d25e280405</text>
</g>
<!-- 1 -->
<g id="node10" class="node">
<title>1</title>
<text text-anchor="middle" x="862.5" y="-1427.3" font-family="Times,serif" font-size="14.00" fill="#000000">v0.10.4</text>
</g>
<!-- 21 -->
<g id="node12" class="node">
<title>21</title>
<polygon fill="none" stroke="#c0c0c0" points="1208.5,-206 1064.5,-206 1064.5,-168 1208.5,-168 1208.5,-206"/>
<text text-anchor="middle" x="1136.5" y="-190.8" font-family="Times,serif" font-size="14.00" fill="#000000">github.com/spf13/pflag</text>
<text text-anchor="middle" x="1136.5" y="-175.8" font-family="Times,serif" font-size="14.00" fill="#000000">v1.0.3</text>
</g>
<!-- 31 -->
<g id="node13" class="node">
<title>31</title>
<polygon fill="none" stroke="#c0c0c0" points="1237.5,-916 1035.5,-916 1035.5,-878 1237.5,-878 1237.5,-916"/>
<text text-anchor="middle" x="1136.5" y="-900.8" font-family="Times,serif" font-size="14.00" fill="#000000">github.com/magiconair/properties</text>
<text text-anchor="middle" x="1136.5" y="-885.8" font-family="Times,serif" font-size="14.00" fill="#000000">v1.8.0</text>
</g>
<!-- 32 -->
<g id="node14" class="node">
<title>32</title>
<polygon fill="none" stroke="#c0c0c0" points="1241,-860 1032,-860 1032,-822 1241,-822 1241,-860"/>
<text text-anchor="middle" x="1136.5" y="-844.8" font-family="Times,serif" font-size="14.00" fill="#000000">github.com/mitchellh/mapstructure</text>
<text text-anchor="middle" x="1136.5" y="-829.8" font-family="Times,serif" font-size="14.00" fill="#000000">v1.1.2</text>
</g>
<!-- 33 -->
<g id="node15" class="node">
<title>33</title>
<polygon fill="none" stroke="#c0c0c0" points="1223.5,-804 1049.5,-804 1049.5,-766 1223.5,-766 1223.5,-804"/>
<text text-anchor="middle" x="1136.5" y="-788.8" font-family="Times,serif" font-size="14.00" fill="#000000">github.com/pelletier/go&#45;toml</text>
<text text-anchor="middle" x="1136.5" y="-773.8" font-family="Times,serif" font-size="14.00" fill="#000000">v1.2.0</text>
</g>
<!-- 35 -->
<g id="node16" class="node">
<title>35</title>
<polygon fill="none" stroke="#c0c0c0" points="1205,-542 1068,-542 1068,-504 1205,-504 1205,-542"/>
<text text-anchor="middle" x="1136.5" y="-526.8" font-family="Times,serif" font-size="14.00" fill="#000000">github.com/spf13/cast</text>
<text text-anchor="middle" x="1136.5" y="-511.8" font-family="Times,serif" font-size="14.00" fill="#000000">v1.3.0</text>
</g>
<!-- 37 -->
<g id="node27" class="node">
<title>37</title>
<polygon fill="none" stroke="#c0c0c0" points="1493,-677 1332,-677 1332,-639 1493,-639 1493,-677"/>
<text text-anchor="middle" x="1412.5" y="-661.8" font-family="Times,serif" font-size="14.00" fill="#000000">github.com/stretchr/testify</text>
<text text-anchor="middle" x="1412.5" y="-646.8" font-family="Times,serif" font-size="14.00" fill="#000000">v1.2.2</text>
</g>
<!-- 35&#45;&gt;37 -->
<g id="edge53" class="edge">
<title>35&#45;&gt;37</title>
<path fill="none" stroke="#000000" d="M1205.0755,-533.8155C1223.0681,-537.9517 1242.1433,-543.5382 1259,-551 1305.9729,-571.793 1353.4845,-607.7251 1382.9463,-632.1595"/>
<polygon fill="#000000" stroke="#000000" points="1380.8535,-634.9725 1390.7619,-638.7242 1385.3557,-629.6124 1380.8535,-634.9725"/>
</g>
<!-- 44 -->
<g id="node38" class="node">
<title>44</title>
<polygon fill="none" stroke="#c0c0c0" points="1505,-542 1320,-542 1320,-504 1505,-504 1505,-542"/>
<text text-anchor="middle" x="1412.5" y="-526.8" font-family="Times,serif" font-size="14.00" fill="#000000">github.com/pmezard/go&#45;difflib</text>
<text text-anchor="middle" x="1412.5" y="-511.8" font-family="Times,serif" font-size="14.00" fill="#000000">v1.0.0</text>
</g>
<!-- 35&#45;&gt;44 -->
<g id="edge52" class="edge">
<title>35&#45;&gt;44</title>
<path fill="none" stroke="#000000" d="M1205.0793,-523C1236.6109,-523 1274.6807,-523 1309.5524,-523"/>
<polygon fill="#000000" stroke="#000000" points="1309.7764,-526.5001 1319.7764,-523 1309.7764,-519.5001 1309.7764,-526.5001"/>
</g>
<!-- 43 -->
<g id="node39" class="node">
<title>43</title>
<polygon fill="none" stroke="#c0c0c0" points="1501,-486 1324,-486 1324,-448 1501,-448 1501,-486"/>
<text text-anchor="middle" x="1412.5" y="-470.8" font-family="Times,serif" font-size="14.00" fill="#000000">github.com/davecgh/go&#45;spew</text>
<text text-anchor="middle" x="1412.5" y="-455.8" font-family="Times,serif" font-size="14.00" fill="#000000">v1.1.1</text>
</g>
<!-- 35&#45;&gt;43 -->
<g id="edge51" class="edge">
<title>35&#45;&gt;43</title>
<path fill="none" stroke="#000000" d="M1205.0793,-509.0854C1237.9137,-502.4233 1277.8376,-494.3228 1313.8577,-487.0144"/>
<polygon fill="#000000" stroke="#000000" points="1314.8002,-490.3945 1323.9045,-484.9759 1313.4082,-483.5343 1314.8002,-490.3945"/>
</g>
<!-- 38 -->
<g id="node17" class="node">
<title>38</title>
<polygon fill="none" stroke="#c0c0c0" points="1253.5,-710 1019.5,-710 1019.5,-672 1253.5,-672 1253.5,-710"/>
<text text-anchor="middle" x="1136.5" y="-694.8" font-family="Times,serif" font-size="14.00" fill="#000000">github.com/ugorji/go/codec</text>
<text text-anchor="middle" x="1136.5" y="-679.8" font-family="Times,serif" font-size="14.00" fill="#000000">v0.0.0&#45;20181204163529&#45;d75b2dcb6bc8</text>
</g>
<!-- 13&#45;&gt;21 -->
<g id="edge24" class="edge">
<title>13&#45;&gt;21</title>
<path fill="none" stroke="#000000" d="M667.5471,-533.625C772.6645,-526.6226 956.4104,-511.4679 978,-490 1065.4076,-403.0852 931.0545,-306.1829 1014,-215 1024.6573,-203.2843 1039.1216,-195.9616 1054.3766,-191.4826"/>
<polygon fill="#000000" stroke="#000000" points="1055.6437,-194.7726 1064.4834,-188.9322 1053.931,-187.9854 1055.6437,-194.7726"/>
</g>
<!-- 17 -->
<g id="node20" class="node">
<title>17</title>
<polygon fill="none" stroke="#c0c0c0" points="949,-448 776,-448 776,-410 949,-410 949,-448"/>
<text text-anchor="middle" x="862.5" y="-432.8" font-family="Times,serif" font-size="14.00" fill="#000000">github.com/BurntSushi/toml</text>
<text text-anchor="middle" x="862.5" y="-417.8" font-family="Times,serif" font-size="14.00" fill="#000000">v0.3.1</text>
</g>
<!-- 13&#45;&gt;17 -->
<g id="edge20" class="edge">
<title>13&#45;&gt;17</title>
<path fill="none" stroke="#000000" d="M628.2053,-518.946C658.5772,-502.3274 704.8086,-478.3799 747,-462 757.0469,-458.0995 767.7444,-454.4289 778.4204,-451.0545"/>
<polygon fill="#000000" stroke="#000000" points="779.6739,-454.3307 788.1995,-448.0406 777.6122,-447.6412 779.6739,-454.3307"/>
</g>
<!-- 18 -->
<g id="node25" class="node">
<title>18</title>
<polygon fill="none" stroke="#c0c0c0" points="965.5,-356 759.5,-356 759.5,-318 965.5,-318 965.5,-356"/>
<text text-anchor="middle" x="862.5" y="-340.8" font-family="Times,serif" font-size="14.00" fill="#000000">github.com/cpuguy83/go&#45;md2man</text>
<text text-anchor="middle" x="862.5" y="-325.8" font-family="Times,serif" font-size="14.00" fill="#000000">v1.0.10</text>
</g>
<!-- 13&#45;&gt;18 -->
<g id="edge21" class="edge">
<title>13&#45;&gt;18</title>
<path fill="none" stroke="#000000" d="M613.0452,-518.7732C640.6255,-490.7992 694.8218,-438.168 747,-401 767.9005,-386.112 792.6055,-372.0076 813.7922,-360.8479"/>
<polygon fill="#000000" stroke="#000000" points="815.6826,-363.81 822.9431,-356.0941 812.4556,-357.5982 815.6826,-363.81"/>
</g>
<!-- 22 -->
<g id="node26" class="node">
<title>22</title>
<polygon fill="none" stroke="#c0c0c0" points="934.5,-580 790.5,-580 790.5,-542 934.5,-542 934.5,-580"/>
<text text-anchor="middle" x="862.5" y="-564.8" font-family="Times,serif" font-size="14.00" fill="#000000">github.com/spf13/viper</text>
<text text-anchor="middle" x="862.5" y="-549.8" font-family="Times,serif" font-size="14.00" fill="#000000">v1.3.2</text>
</g>
<!-- 13&#45;&gt;22 -->
<g id="edge25" class="edge">
<title>13&#45;&gt;22</title>
<path fill="none" stroke="#000000" d="M667.7322,-544.2849C702.5809,-547.2756 744.3864,-550.8634 780.3166,-553.9469"/>
<polygon fill="#000000" stroke="#000000" points="780.0216,-557.4344 790.2843,-554.8024 780.6202,-550.46 780.0216,-557.4344"/>
</g>
<!-- 19 -->
<g id="node32" class="node">
<title>19</title>
<polygon fill="none" stroke="#c0c0c0" points="978,-692 747,-692 747,-654 978,-654 978,-692"/>
<text text-anchor="middle" x="862.5" y="-676.8" font-family="Times,serif" font-size="14.00" fill="#000000">github.com/inconshreveable/mousetrap</text>
<text text-anchor="middle" x="862.5" y="-661.8" font-family="Times,serif" font-size="14.00" fill="#000000">v1.0.0</text>
</g>
<!-- 13&#45;&gt;19 -->
<g id="edge22" class="edge">
<title>13&#45;&gt;19</title>
<path fill="none" stroke="#000000" d="M616.1202,-557.1768C644.2996,-581.181 696.021,-621.9382 747,-645 751.3531,-646.9693 755.8637,-648.8113 760.4677,-650.5332"/>
<polygon fill="#000000" stroke="#000000" points="759.4338,-653.8797 770.0286,-653.9007 761.7594,-647.2773 759.4338,-653.8797"/>
</g>
<!-- 20 -->
<g id="node33" class="node">
<title>20</title>
<polygon fill="none" stroke="#c0c0c0" points="963.5,-636 761.5,-636 761.5,-598 963.5,-598 963.5,-636"/>
<text text-anchor="middle" x="862.5" y="-620.8" font-family="Times,serif" font-size="14.00" fill="#000000">github.com/mitchellh/go&#45;homedir</text>
<text text-anchor="middle" x="862.5" y="-605.8" font-family="Times,serif" font-size="14.00" fill="#000000">v1.1.0</text>
</g>
<!-- 13&#45;&gt;20 -->
<g id="edge23" class="edge">
<title>13&#45;&gt;20</title>
<path fill="none" stroke="#000000" d="M647.7897,-557.057C676.9148,-567.1591 713.7338,-579.4239 747,-589 754.612,-591.1912 762.5384,-593.3549 770.5138,-595.4501"/>
<polygon fill="#000000" stroke="#000000" points="769.6905,-598.8522 780.2484,-597.969 771.4441,-592.0754 769.6905,-598.8522"/>
</g>
<!-- 23 -->
<g id="node40" class="node">
<title>23</title>
<polygon fill="none" stroke="#c0c0c0" points="1193,-150 1080,-150 1080,-112 1193,-112 1193,-150"/>
<text text-anchor="middle" x="1136.5" y="-134.8" font-family="Times,serif" font-size="14.00" fill="#000000">gopkg.in/yaml.v2</text>
<text text-anchor="middle" x="1136.5" y="-119.8" font-family="Times,serif" font-size="14.00" fill="#000000">v2.2.2</text>
</g>
<!-- 13&#45;&gt;23 -->
<g id="edge26" class="edge">
<title>13&#45;&gt;23</title>
<path fill="none" stroke="#000000" d="M647.5535,-518.9577C676.6095,-509.1257 713.4377,-497.6257 747,-490 797.5657,-478.511 941.7328,-494.0619 978,-457 1071.3054,-361.65 924.7216,-258.1307 1014,-159 1028.1775,-143.2579 1049.226,-135.4298 1069.8927,-131.7768"/>
<polygon fill="#000000" stroke="#000000" points="1070.5873,-135.2126 1079.9756,-130.3025 1069.5745,-128.2862 1070.5873,-135.2126"/>
</g>
<!-- 27 -->
<g id="node21" class="node">
<title>27</title>
<polygon fill="none" stroke="#c0c0c0" points="1217.5,-654 1055.5,-654 1055.5,-616 1217.5,-616 1217.5,-654"/>
<text text-anchor="middle" x="1136.5" y="-638.8" font-family="Times,serif" font-size="14.00" fill="#000000">github.com/coreos/go&#45;etcd</text>
<text text-anchor="middle" x="1136.5" y="-623.8" font-family="Times,serif" font-size="14.00" fill="#000000">v2.0.0+incompatible</text>
</g>
<!-- 36 -->
<g id="node22" class="node">
<title>36</title>
<polygon fill="none" stroke="#c0c0c0" points="1247,-598 1026,-598 1026,-560 1247,-560 1247,-598"/>
<text text-anchor="middle" x="1136.5" y="-582.8" font-family="Times,serif" font-size="14.00" fill="#000000">github.com/spf13/jwalterweatherman</text>
<text text-anchor="middle" x="1136.5" y="-567.8" font-family="Times,serif" font-size="14.00" fill="#000000">v1.0.0</text>
</g>
<!-- 0 -->
<g id="node23" class="node">
<title>0</title>
<polygon fill="none" stroke="#c0c0c0" points="214,-1178 0,-1178 0,-1142 214,-1142 214,-1178"/>
<text text-anchor="middle" x="107" y="-1156.3" font-family="Times,serif" font-size="14.00" fill="#000000">github.com/CmdrVasquess/watched</text>
</g>
<!-- 0&#45;&gt;7 -->
<g id="edge7" class="edge">
<title>0&#45;&gt;7</title>
<path fill="none" stroke="#000000" d="M214.2611,-1159.5832C440.1273,-1158.7057 955.7339,-1156.7023 1098.9746,-1156.1458"/>
<polygon fill="#000000" stroke="#000000" points="1099.4136,-1159.6442 1109.3999,-1156.1053 1099.3863,-1152.6443 1099.4136,-1159.6442"/>
</g>
<!-- 0&#45;&gt;4 -->
<g id="edge4" class="edge">
<title>0&#45;&gt;4</title>
<path fill="none" stroke="#000000" d="M128.6393,-1178.0942C155.7032,-1200.0786 204.0816,-1237.2872 250,-1262 259.5133,-1267.1199 269.8902,-1271.886 280.1915,-1276.1795"/>
<polygon fill="#000000" stroke="#000000" points="279.0209,-1279.4814 289.6037,-1279.9863 281.6455,-1272.9921 279.0209,-1279.4814"/>
</g>
<!-- 0&#45;&gt;6 -->
<g id="edge6" class="edge">
<title>0&#45;&gt;6</title>
<path fill="none" stroke="#000000" d="M118.852,-1141.9988C157.6022,-1083.1439 280.7373,-896.1229 327.6276,-824.9046"/>
<polygon fill="#000000" stroke="#000000" points="330.6372,-826.6981 333.2131,-816.4212 324.7906,-822.8487 330.6372,-826.6981"/>
</g>
<!-- 0&#45;&gt;1 -->
<g id="edge1" class="edge">
<title>0&#45;&gt;1</title>
<path fill="none" stroke="#000000" d="M117.7412,-1178.2112C138.8017,-1212.3706 188.8395,-1286.2779 250,-1327 435.3135,-1450.3862 719.9847,-1442.4128 823.3167,-1434.694"/>
<polygon fill="#000000" stroke="#000000" points="823.6166,-1438.1814 833.31,-1433.905 823.0655,-1431.2031 823.6166,-1438.1814"/>
</g>
<!-- 0&#45;&gt;5 -->
<g id="edge5" class="edge">
<title>0&#45;&gt;5</title>
<path fill="none" stroke="#000000" d="M142.4392,-1178.084C170.7851,-1191.6887 211.9454,-1209.5499 250,-1219 330.8665,-1239.0815 425.2157,-1247.0901 494.709,-1250.2129"/>
<polygon fill="#000000" stroke="#000000" points="494.6381,-1253.713 504.7772,-1250.6391 494.9341,-1246.7192 494.6381,-1253.713"/>
</g>
<!-- 3 -->
<g id="node29" class="node">
<title>3</title>
<polygon fill="none" stroke="#c0c0c0" points="439,-1132 253,-1132 253,-1094 439,-1094 439,-1132"/>
<text text-anchor="middle" x="346" y="-1116.8" font-family="Times,serif" font-size="14.00" fill="#000000">git.fractalqb.de/fractalqb/gomk</text>
<text text-anchor="middle" x="346" y="-1101.8" font-family="Times,serif" font-size="14.00" fill="#000000">v0.1.0</text>
</g>
<!-- 0&#45;&gt;3 -->
<g id="edge3" class="edge">
<title>0&#45;&gt;3</title>
<path fill="none" stroke="#000000" d="M198.7201,-1141.963C213.1593,-1139.1235 228.1713,-1136.1713 242.848,-1133.2851"/>
<polygon fill="#000000" stroke="#000000" points="243.8074,-1136.6636 252.9441,-1131.2997 242.4566,-1129.7951 243.8074,-1136.6636"/>
</g>
<!-- 8 -->
<g id="node30" class="node">
<title>8</title>
<text text-anchor="middle" x="594.5" y="-271.3" font-family="Times,serif" font-size="14.00" fill="#000000">v0.0.0&#45;20210220032944&#45;ac19c3e999fb</text>
</g>
<!-- 0&#45;&gt;8 -->
<g id="edge8" class="edge">
<title>0&#45;&gt;8</title>
<path fill="none" stroke="#000000" d="M108.311,-1141.8467C116.7958,-1038.9676 173.3768,-525.8337 470,-302 471.6551,-300.751 473.356,-299.5574 475.097,-298.4166"/>
<polygon fill="#000000" stroke="#000000" points="477.2475,-301.2134 484.1111,-293.1424 473.7124,-295.1716 477.2475,-301.2134"/>
</g>
<!-- 2 -->
<g id="node37" class="node">
<title>2</title>
<polygon fill="none" stroke="#c0c0c0" points="435,-760 257,-760 257,-722 435,-722 435,-760"/>
<text text-anchor="middle" x="346" y="-744.8" font-family="Times,serif" font-size="14.00" fill="#000000">git.fractalqb.de/fractalqb/ggja</text>
<text text-anchor="middle" x="346" y="-729.8" font-family="Times,serif" font-size="14.00" fill="#000000">v0.10.2</text>
</g>
<!-- 0&#45;&gt;2 -->
<g id="edge2" class="edge">
<title>0&#45;&gt;2</title>
<path fill="none" stroke="#000000" d="M108.0632,-1141.7272C112.6732,-1079.7367 136.2418,-875.3996 250,-769 251.1094,-767.9623 252.2552,-766.9629 253.4335,-766.0002"/>
<polygon fill="#000000" stroke="#000000" points="255.5185,-768.8124 261.6424,-760.1666 251.4635,-763.1064 255.5185,-768.8124"/>
</g>
<!-- 9 -->
<g id="node43" class="node">
<title>9</title>
<text text-anchor="middle" x="1412.5" y="-1206.3" font-family="Times,serif" font-size="14.00" fill="#000000">v0.0.0&#45;20210220050731&#45;9a76102bfb43</text>
</g>
<!-- 0&#45;&gt;9 -->
<g id="edge9" class="edge">
<title>0&#45;&gt;9</title>
<path fill="none" stroke="#000000" d="M214.3254,-1170.2663C226.3543,-1171.2654 238.4356,-1172.2023 250,-1173 589.1264,-1196.3936 674.1722,-1200.5714 1014,-1209 1104.6818,-1211.2491 1207.0064,-1211.4567 1285.2612,-1211.124"/>
<polygon fill="#000000" stroke="#000000" points="1285.6691,-1214.6223 1295.6528,-1211.0761 1285.6367,-1207.6224 1285.6691,-1214.6223"/>
</g>
<!-- 16 -->
<g id="node24" class="node">
<title>16</title>
<polygon fill="none" stroke="#c0c0c0" points="1191.5,-38 1081.5,-38 1081.5,0 1191.5,0 1191.5,-38"/>
<text text-anchor="middle" x="1136.5" y="-22.8" font-family="Times,serif" font-size="14.00" fill="#000000">golang.org/x/text</text>
<text text-anchor="middle" x="1136.5" y="-7.8" font-family="Times,serif" font-size="14.00" fill="#000000">v0.3.0</text>
</g>
<!-- 18&#45;&gt;24 -->
<g id="edge28" class="edge">
<title>18&#45;&gt;24</title>
<path fill="none" stroke="#000000" d="M891.4457,-317.924C917.7752,-299.103 955.8109,-267.984 978,-232 1009.2424,-181.3342 970.9238,-144.0798 1014,-103 1019.3185,-97.928 1025.3584,-93.706 1031.838,-90.1982"/>
<polygon fill="#000000" stroke="#000000" points="1033.4152,-93.3236 1040.9196,-85.8446 1030.3892,-87.0114 1033.4152,-93.3236"/>
</g>
<!-- 22&#45;&gt;26 -->
<g id="edge30" class="edge">
<title>22&#45;&gt;26</title>
<path fill="none" stroke="#000000" d="M934.7159,-564.4743C951.1185,-568.7195 966.9425,-576.1944 978,-589 1035.1714,-655.2101 956.3954,-915.1665 1014,-981 1024.5881,-993.1006 1039.2333,-1000.5545 1054.7219,-1005.0343"/>
<polygon fill="#000000" stroke="#000000" points="1053.8967,-1008.4356 1064.4459,-1007.4542 1055.5872,-1001.6428 1053.8967,-1008.4356"/>
</g>
<!-- 22&#45;&gt;29 -->
<g id="edge33" class="edge">
<title>22&#45;&gt;29</title>
<path fill="none" stroke="#000000" d="M934.5661,-564.2683C951.0732,-568.502 966.9842,-576.0229 978,-589 1047.366,-670.7165 945.359,-987.6735 1014,-1070 1034.4699,-1094.5511 1071.2127,-1101.5355 1099.1354,-1102.9885"/>
<polygon fill="#000000" stroke="#000000" points="1099.2509,-1106.4935 1109.3528,-1103.2996 1099.464,-1099.4968 1099.2509,-1106.4935"/>
</g>
<!-- 22&#45;&gt;39 -->
<g id="edge44" class="edge">
<title>22&#45;&gt;39</title>
<path fill="none" stroke="#000000" d="M934.5818,-564.591C950.987,-568.8339 966.8458,-576.2785 978,-589 1077.0145,-701.9273 914.2465,-812.7249 1014,-925 1014.6498,-925.7313 1015.3144,-926.4457 1015.9931,-927.1433"/>
<polygon fill="#000000" stroke="#000000" points="1013.9552,-930.0125 1023.772,-933.9977 1018.5831,-924.7605 1013.9552,-930.0125"/>
</g>
<!-- 22&#45;&gt;21 -->
<g id="edge41" class="edge">
<title>22&#45;&gt;21</title>
<path fill="none" stroke="#000000" d="M934.7091,-554.0617C951.1118,-549.1129 966.9377,-541.0406 978,-528 1068.5835,-421.2173 920.5882,-319.3175 1014,-215 1024.5653,-203.2012 1038.9897,-195.8426 1054.2349,-191.3547"/>
<polygon fill="#000000" stroke="#000000" points="1055.5011,-194.6448 1064.3393,-188.8022 1053.7867,-187.858 1055.5011,-194.6448"/>
</g>
<!-- 22&#45;&gt;31 -->
<g id="edge35" class="edge">
<title>22&#45;&gt;31</title>
<path fill="none" stroke="#000000" d="M934.6965,-564.8332C950.9989,-569.0856 966.7808,-576.4739 978,-589 1061.7101,-682.4614 929.6783,-776.09 1014,-869 1017.8028,-873.1901 1022.0925,-876.8186 1026.7315,-879.9562"/>
<polygon fill="#000000" stroke="#000000" points="1025.038,-883.0208 1035.429,-885.0892 1028.5958,-876.9924 1025.038,-883.0208"/>
</g>
<!-- 22&#45;&gt;32 -->
<g id="edge36" class="edge">
<title>22&#45;&gt;32</title>
<path fill="none" stroke="#000000" d="M934.7237,-565.16C950.9264,-569.4185 966.6551,-576.7278 978,-589 1046.4476,-663.0421 945.068,-739.4087 1014,-813 1016.8546,-816.0476 1019.9672,-818.7959 1023.2831,-821.2728"/>
<polygon fill="#000000" stroke="#000000" points="1021.6224,-824.3678 1031.9136,-826.8862 1025.4391,-818.4998 1021.6224,-824.3678"/>
</g>
<!-- 22&#45;&gt;33 -->
<g id="edge37" class="edge">
<title>22&#45;&gt;33</title>
<path fill="none" stroke="#000000" d="M934.5316,-565.7076C950.6418,-569.9643 966.3761,-577.1358 978,-589 1029.9209,-641.9945 962.7538,-698.3528 1014,-752 1021.3211,-759.6641 1030.2183,-765.613 1039.8403,-770.2206"/>
<polygon fill="#000000" stroke="#000000" points="1038.6885,-773.5343 1049.2599,-774.2394 1041.4355,-767.0959 1038.6885,-773.5343"/>
</g>
<!-- 22&#45;&gt;35 -->
<g id="edge39" class="edge">
<title>22&#45;&gt;35</title>
<path fill="none" stroke="#000000" d="M934.8487,-550.9662C972.6904,-545.7181 1019.0709,-539.2858 1057.8064,-533.9137"/>
<polygon fill="#000000" stroke="#000000" points="1058.5717,-537.3412 1067.9961,-532.5005 1057.6101,-530.4075 1058.5717,-537.3412"/>
</g>
<!-- 22&#45;&gt;38 -->
<g id="edge43" class="edge">
<title>22&#45;&gt;38</title>
<path fill="none" stroke="#000000" d="M934.7887,-568.3097C950.2462,-572.5325 965.6258,-579.0358 978,-589 1006.4868,-611.9387 985.3633,-640.2488 1014,-663 1015.5693,-664.2468 1017.1838,-665.4402 1018.8382,-666.5824"/>
<polygon fill="#000000" stroke="#000000" points="1017.0697,-669.6038 1027.4179,-671.8769 1020.7458,-663.6468 1017.0697,-669.6038"/>
</g>
<!-- 22&#45;&gt;27 -->
<g id="edge31" class="edge">
<title>22&#45;&gt;27</title>
<path fill="none" stroke="#000000" d="M934.7215,-575.8475C949.2319,-579.5714 964.2425,-583.9666 978,-589 994.7995,-595.1464 997.1606,-600.964 1014,-607 1024.0628,-610.607 1034.7614,-613.859 1045.4838,-616.7598"/>
<polygon fill="#000000" stroke="#000000" points="1044.7603,-620.1881 1055.3199,-619.3251 1046.5269,-613.4147 1044.7603,-620.1881"/>
</g>
<!-- 22&#45;&gt;36 -->
<g id="edge40" class="edge">
<title>22&#45;&gt;36</title>
<path fill="none" stroke="#000000" d="M934.8487,-565.7528C959.631,-567.3809 988.0754,-569.2495 1015.6365,-571.0601"/>
<polygon fill="#000000" stroke="#000000" points="1015.5342,-574.5608 1025.7421,-571.7239 1015.9931,-567.5758 1015.5342,-574.5608"/>
</g>
<!-- 22&#45;&gt;16 -->
<g id="edge47" class="edge">
<title>22&#45;&gt;16</title>
<path fill="none" stroke="#000000" d="M894.5976,-541.9821C921.9167,-523.8764 959.5736,-493.9439 978,-457 1018.8222,-375.1539 953.9097,-115.9521 1014,-47 1028.2913,-30.6011 1050.0334,-22.7289 1071.2543,-19.2291"/>
<polygon fill="#000000" stroke="#000000" points="1071.8233,-22.6841 1081.2657,-17.8788 1070.8876,-15.7469 1071.8233,-22.6841"/>
</g>
<!-- 22&#45;&gt;37 -->
<g id="edge42" class="edge">
<title>22&#45;&gt;37</title>
<path fill="none" stroke="#000000" d="M934.6966,-566.3054C950.6113,-570.5666 966.2153,-577.5901 978,-589 1021.0721,-630.7021 966.2847,-682.7024 1014,-719 1121.5918,-800.8463 1293.6764,-724.4646 1371.6894,-682.0256"/>
<polygon fill="#000000" stroke="#000000" points="1373.6669,-684.9317 1380.7262,-677.0313 1370.2809,-678.8051 1373.6669,-684.9317"/>
</g>
<!-- 25 -->
<g id="node34" class="node">
<title>25</title>
<polygon fill="none" stroke="#c0c0c0" points="1253,-430 1020,-430 1020,-392 1253,-392 1253,-430"/>
<text text-anchor="middle" x="1136.5" y="-414.8" font-family="Times,serif" font-size="14.00" fill="#000000">github.com/armon/consul&#45;api</text>
<text text-anchor="middle" x="1136.5" y="-399.8" font-family="Times,serif" font-size="14.00" fill="#000000">v0.0.0&#45;20180202201655&#45;eb2c6b5be1b6</text>
</g>
<!-- 22&#45;&gt;25 -->
<g id="edge29" class="edge">
<title>22&#45;&gt;25</title>
<path fill="none" stroke="#000000" d="M934.5227,-551.1925C950.2588,-546.2819 965.8267,-538.9459 978,-528 1009.7286,-499.4704 981.5185,-466.6693 1014,-439 1015.3415,-437.8572 1016.7204,-436.7586 1018.1329,-435.7027"/>
<polygon fill="#000000" stroke="#000000" points="1020.1664,-438.5538 1026.5645,-430.109 1016.2966,-432.7208 1020.1664,-438.5538"/>
</g>
<!-- 34 -->
<g id="node35" class="node">
<title>34</title>
<polygon fill="none" stroke="#c0c0c0" points="1208.5,-374 1064.5,-374 1064.5,-336 1208.5,-336 1208.5,-374"/>
<text text-anchor="middle" x="1136.5" y="-358.8" font-family="Times,serif" font-size="14.00" fill="#000000">github.com/spf13/afero</text>
<text text-anchor="middle" x="1136.5" y="-343.8" font-family="Times,serif" font-size="14.00" fill="#000000">v1.1.2</text>
</g>
<!-- 22&#45;&gt;34 -->
<g id="edge38" class="edge">
<title>22&#45;&gt;34</title>
<path fill="none" stroke="#000000" d="M934.7786,-552.6714C950.7856,-547.7246 966.4108,-540.0014 978,-528 1024.1251,-480.2343 966.6118,-429.5128 1014,-383 1025.0475,-372.1566 1039.382,-365.1731 1054.3327,-360.7428"/>
<polygon fill="#000000" stroke="#000000" points="1055.4135,-364.0785 1064.218,-358.1853 1053.6601,-357.3017 1055.4135,-364.0785"/>
</g>
<!-- 40 -->
<g id="node36" class="node">
<title>40</title>
<polygon fill="none" stroke="#c0c0c0" points="1253.5,-318 1019.5,-318 1019.5,-280 1253.5,-280 1253.5,-318"/>
<text text-anchor="middle" x="1136.5" y="-302.8" font-family="Times,serif" font-size="14.00" fill="#000000">golang.org/x/crypto</text>
<text text-anchor="middle" x="1136.5" y="-287.8" font-family="Times,serif" font-size="14.00" fill="#000000">v0.0.0&#45;20181203042331&#45;505ab145d0a9</text>
</g>
<!-- 22&#45;&gt;40 -->
<g id="edge45" class="edge">
<title>22&#45;&gt;40</title>
<path fill="none" stroke="#000000" d="M934.7503,-553.3901C950.9523,-548.4382 966.6741,-540.5327 978,-528 1038.8497,-460.6668 951.3682,-392.6788 1014,-327 1014.7904,-326.1711 1015.5999,-325.3645 1016.4274,-324.5795"/>
<polygon fill="#000000" stroke="#000000" points="1018.8272,-327.1376 1024.3304,-318.0841 1014.3825,-321.7297 1018.8272,-327.1376"/>
</g>
<!-- 22&#45;&gt;23 -->
<g id="edge48" class="edge">
<title>22&#45;&gt;23</title>
<path fill="none" stroke="#000000" d="M913.7635,-541.9563C937.2356,-530.5352 963.0901,-513.5727 978,-490 1017.5513,-427.4691 964.8128,-214.2724 1014,-159 1028.0837,-143.174 1049.1096,-135.3256 1069.7842,-131.6798"/>
<polygon fill="#000000" stroke="#000000" points="1070.482,-135.1152 1079.8735,-130.211 1069.4735,-128.1882 1070.482,-135.1152"/>
</g>
<!-- 28 -->
<g id="node41" class="node">
<title>28</title>
<polygon fill="none" stroke="#c0c0c0" points="1226,-262 1047,-262 1047,-224 1226,-224 1226,-262"/>
<text text-anchor="middle" x="1136.5" y="-246.8" font-family="Times,serif" font-size="14.00" fill="#000000">github.com/coreos/go&#45;semver</text>
<text text-anchor="middle" x="1136.5" y="-231.8" font-family="Times,serif" font-size="14.00" fill="#000000">v0.2.0</text>
</g>
<!-- 22&#45;&gt;28 -->
<g id="edge32" class="edge">
<title>22&#45;&gt;28</title>
<path fill="none" stroke="#000000" d="M934.7875,-553.7805C951.0879,-548.8281 966.8462,-540.8246 978,-528 1053.6899,-440.9726 936.0058,-355.9683 1014,-271 1020.6242,-263.7835 1028.6934,-258.2371 1037.4968,-253.997"/>
<polygon fill="#000000" stroke="#000000" points="1039.048,-257.1415 1046.9069,-250.0359 1036.3322,-250.6898 1039.048,-257.1415"/>
</g>
<!-- 30 -->
<g id="node42" class="node">
<title>30</title>
<polygon fill="none" stroke="#c0c0c0" points="1214,-486 1059,-486 1059,-448 1214,-448 1214,-486"/>
<text text-anchor="middle" x="1136.5" y="-470.8" font-family="Times,serif" font-size="14.00" fill="#000000">github.com/hashicorp/hcl</text>
<text text-anchor="middle" x="1136.5" y="-455.8" font-family="Times,serif" font-size="14.00" fill="#000000">v1.0.0</text>
</g>
<!-- 22&#45;&gt;30 -->
<g id="edge34" class="edge">
<title>22&#45;&gt;30</title>
<path fill="none" stroke="#000000" d="M934.51,-546.0098C949.4071,-541.3914 964.6235,-535.4845 978,-528 996.9417,-517.4017 994.7812,-505.087 1014,-495 1024.8982,-489.2801 1036.9425,-484.7214 1049.0984,-481.0899"/>
<polygon fill="#000000" stroke="#000000" points="1050.1581,-484.428 1058.8514,-478.3718 1048.2789,-477.685 1050.1581,-484.428"/>
</g>
<!-- 41 -->
<g id="node45" class="node">
<title>41</title>
<text text-anchor="middle" x="1412.5" y="-1098.3" font-family="Times,serif" font-size="14.00" fill="#c0c0c0">v0.0.0&#45;20181205085412&#45;a5c9d58dba9a</text>
</g>
<!-- 22&#45;&gt;41 -->
<g id="edge46" class="edge">
<title>22&#45;&gt;41</title>
<path fill="none" stroke="#000000" d="M934.5171,-564.31C951.025,-568.5429 966.9487,-576.0531 978,-589 1042.8429,-664.9652 945.5891,-964.2315 1014,-1037 1051.6706,-1077.0701 1204.7721,-1062.8336 1259,-1072 1276.929,-1075.0306 1295.9814,-1078.5285 1314.3427,-1082.0418"/>
<polygon fill="#000000" stroke="#000000" points="1313.6834,-1085.479 1324.1651,-1083.9349 1315.0082,-1078.6055 1313.6834,-1085.479"/>
</g>
<!-- 8&#45;&gt;16 -->
<g id="edge17" class="edge">
<title>8&#45;&gt;16</title>
<path fill="none" stroke="#000000" d="M621.7141,-256.7458C686.7318,-213.926 857.3678,-106.1852 1014,-47 1032.1635,-40.1367 1052.5044,-34.6612 1071.3131,-30.4382"/>
<polygon fill="#000000" stroke="#000000" points="1072.25,-33.8166 1081.2842,-28.2818 1070.7703,-26.9747 1072.25,-33.8166"/>
</g>
<!-- 14&#45;&gt;16 -->
<g id="edge27" class="edge">
<title>14&#45;&gt;16</title>
<path fill="none" stroke="#000000" d="M693.3682,-310.9859C702.1625,-308.3594 710.8235,-305.3779 719,-302 845.3662,-249.7956 890.6955,-241.2219 978,-136 1005.2459,-103.1625 981.5185,-74.6693 1014,-47 1029.9844,-33.3837 1051.2657,-26.0482 1071.6013,-22.1954"/>
<polygon fill="#000000" stroke="#000000" points="1072.1811,-25.6471 1081.481,-20.5715 1071.0457,-18.7398 1072.1811,-25.6471"/>
</g>
<!-- 23&#45;&gt;42 -->
<g id="edge49" class="edge">
<title>23&#45;&gt;42</title>
<path fill="none" stroke="#000000" d="M1193.0187,-131C1219.5593,-131 1252.3643,-131 1284.4485,-131"/>
<polygon fill="#000000" stroke="#000000" points="1284.8313,-134.5001 1294.8312,-131 1284.8312,-127.5001 1284.8313,-134.5001"/>
</g>
<!-- 30&#45;&gt;43 -->
<g id="edge50" class="edge">
<title>30&#45;&gt;43</title>
<path fill="none" stroke="#000000" d="M1214.1159,-467C1245.0375,-467 1280.9975,-467 1313.7425,-467"/>
<polygon fill="#000000" stroke="#000000" points="1313.7924,-470.5001 1323.7924,-467 1313.7923,-463.5001 1313.7924,-470.5001"/>
</g>
</g>
</svg>
