<?xml version="1.0" encoding="UTF-8" standalone="no"?>
<!DOCTYPE svg PUBLIC "-//W3C//DTD SVG 1.1//EN"
 "http://www.w3.org/Graphics/SVG/1.1/DTD/svg11.dtd">
<!-- Generated by graphviz version 2.40.1 (20161225.0304)
 -->
<!-- Title: gomodgraph Pages: 1 -->
<svg width="1227pt" height="260pt"
 viewBox="0.00 0.00 1227.35 260.00" xmlns="http://www.w3.org/2000/svg" xmlns:xlink="http://www.w3.org/1999/xlink">
<g id="graph0" class="graph" transform="scale(1 1) rotate(0) translate(4 256)">
<title>gomodgraph</title>
<polygon fill="#ffffff" stroke="transparent" points="-4,4 -4,-256 1223.3485,-256 1223.3485,4 -4,4"/>
<!-- github.com/CmdrVasquess/watched -->
<g id="node1" class="node">
<title>github.com/CmdrVasquess/watched</title>
<polygon fill="none" stroke="#000000" points="616.8485,-252 428.8485,-252 428.8485,-216 616.8485,-216 616.8485,-252"/>
<text text-anchor="middle" x="522.8485" y="-230.9" font-family="Times,serif" font-size="12.00" fill="#000000">github.com/CmdrVasquess/watched</text>
</g>
<!-- git.fractalqb.de/fractalqb/c4hgol@v0.10.3 -->
<g id="node2" class="node">
<title>git.fractalqb.de/fractalqb/c4hgol@v0.10.3</title>
<polygon fill="#00ff00" stroke="#000000" points="734.8485,-36 520.8485,-36 520.8485,0 734.8485,0 734.8485,-36"/>
<text text-anchor="middle" x="627.8485" y="-14.9" font-family="Times,serif" font-size="12.00" fill="#000000">git.fractalqb.de/fractalqb/c4hgol@v0.10.3</text>
</g>
<!-- github.com/CmdrVasquess/watched&#45;&gt;git.fractalqb.de/fractalqb/c4hgol@v0.10.3 -->
<g id="edge1" class="edge">
<title>github.com/CmdrVasquess/watched&#45;&gt;git.fractalqb.de/fractalqb/c4hgol@v0.10.3</title>
<path fill="none" stroke="#000000" d="M428.6815,-230.8219C287.743,-225.0829 35.4295,-210.6242 7.8485,-180 -2.8591,-168.111 -2.2761,-156.3892 7.8485,-144 70.0989,-67.8263 348.7799,-36.5628 510.5391,-24.6555"/>
<polygon fill="#000000" stroke="#000000" points="510.8208,-28.1443 520.5426,-23.9328 510.3163,-21.1625 510.8208,-28.1443"/>
</g>
<!-- git.fractalqb.de/fractalqb/ggja@v0.10.1 -->
<g id="node3" class="node">
<title>git.fractalqb.de/fractalqb/ggja@v0.10.1</title>
<polygon fill="#00ff00" stroke="#000000" points="218.8485,-180 16.8485,-180 16.8485,-144 218.8485,-144 218.8485,-180"/>
<text text-anchor="middle" x="117.8485" y="-158.9" font-family="Times,serif" font-size="12.00" fill="#000000">git.fractalqb.de/fractalqb/ggja@v0.10.1</text>
</g>
<!-- github.com/CmdrVasquess/watched&#45;&gt;git.fractalqb.de/fractalqb/ggja@v0.10.1 -->
<g id="edge2" class="edge">
<title>github.com/CmdrVasquess/watched&#45;&gt;git.fractalqb.de/fractalqb/ggja@v0.10.1</title>
<path fill="none" stroke="#000000" d="M428.6604,-217.2554C368.9857,-206.6466 291.5291,-192.8765 228.8684,-181.7369"/>
<polygon fill="#000000" stroke="#000000" points="229.4021,-178.2769 218.9438,-179.9725 228.1768,-185.1689 229.4021,-178.2769"/>
</g>
<!-- git.fractalqb.de/fractalqb/gomk@v0.0.0&#45;20201130173917&#45;247026b7cf39 -->
<g id="node4" class="node">
<title>git.fractalqb.de/fractalqb/gomk@v0.0.0&#45;20201130173917&#45;247026b7cf39</title>
<polygon fill="#00ff00" stroke="#000000" points="600.3485,-180 237.3485,-180 237.3485,-144 600.3485,-144 600.3485,-180"/>
<text text-anchor="middle" x="418.8485" y="-158.9" font-family="Times,serif" font-size="12.00" fill="#000000">git.fractalqb.de/fractalqb/gomk@v0.0.0&#45;20201130173917&#45;247026b7cf39</text>
</g>
<!-- github.com/CmdrVasquess/watched&#45;&gt;git.fractalqb.de/fractalqb/gomk@v0.0.0&#45;20201130173917&#45;247026b7cf39 -->
<g id="edge3" class="edge">
<title>github.com/CmdrVasquess/watched&#45;&gt;git.fractalqb.de/fractalqb/gomk@v0.0.0&#45;20201130173917&#45;247026b7cf39</title>
<path fill="none" stroke="#000000" d="M496.6049,-215.8314C483.549,-206.7927 467.5951,-195.7476 453.5438,-186.0198"/>
<polygon fill="#000000" stroke="#000000" points="455.2979,-182.9773 445.0837,-180.1628 451.3134,-188.7326 455.2979,-182.9773"/>
</g>
<!-- git.fractalqb.de/fractalqb/qbsllm@v0.11.1 -->
<g id="node5" class="node">
<title>git.fractalqb.de/fractalqb/qbsllm@v0.11.1</title>
<polygon fill="#00ff00" stroke="#000000" points="869.3485,-180 656.3485,-180 656.3485,-144 869.3485,-144 869.3485,-180"/>
<text text-anchor="middle" x="762.8485" y="-158.9" font-family="Times,serif" font-size="12.00" fill="#000000">git.fractalqb.de/fractalqb/qbsllm@v0.11.1</text>
</g>
<!-- github.com/CmdrVasquess/watched&#45;&gt;git.fractalqb.de/fractalqb/qbsllm@v0.11.1 -->
<g id="edge4" class="edge">
<title>github.com/CmdrVasquess/watched&#45;&gt;git.fractalqb.de/fractalqb/qbsllm@v0.11.1</title>
<path fill="none" stroke="#000000" d="M583.1009,-215.9243C616.4809,-205.9103 658.1417,-193.412 692.9484,-182.97"/>
<polygon fill="#000000" stroke="#000000" points="693.9988,-186.3091 702.5714,-180.0831 691.9874,-179.6043 693.9988,-186.3091"/>
</g>
<!-- git.fractalqb.de/fractalqb/sllm@v0.12.0 -->
<g id="node6" class="node">
<title>git.fractalqb.de/fractalqb/sllm@v0.12.0</title>
<polygon fill="#00ff00" stroke="#000000" points="599.3485,-108 398.3485,-108 398.3485,-72 599.3485,-72 599.3485,-108"/>
<text text-anchor="middle" x="498.8485" y="-86.9" font-family="Times,serif" font-size="12.00" fill="#000000">git.fractalqb.de/fractalqb/sllm@v0.12.0</text>
</g>
<!-- github.com/CmdrVasquess/watched&#45;&gt;git.fractalqb.de/fractalqb/sllm@v0.12.0 -->
<g id="edge5" class="edge">
<title>github.com/CmdrVasquess/watched&#45;&gt;git.fractalqb.de/fractalqb/sllm@v0.12.0</title>
<path fill="none" stroke="#000000" d="M569.3239,-215.9715C584.7275,-207.5066 600.1476,-195.7373 608.8485,-180 616.5902,-165.9976 617.3098,-157.5796 608.8485,-144 600.4963,-130.5955 587.7377,-120.4243 573.8307,-112.7383"/>
<polygon fill="#000000" stroke="#000000" points="575.0626,-109.4387 564.5608,-108.0374 571.8966,-115.6818 575.0626,-109.4387"/>
</g>
<!-- github.com/fsnotify/fsnotify@v1.4.9 -->
<g id="node7" class="node">
<title>github.com/fsnotify/fsnotify@v1.4.9</title>
<polygon fill="#00ff00" stroke="#000000" points="1122.3485,-180 933.3485,-180 933.3485,-144 1122.3485,-144 1122.3485,-180"/>
<text text-anchor="middle" x="1027.8485" y="-158.9" font-family="Times,serif" font-size="12.00" fill="#000000">github.com/fsnotify/fsnotify@v1.4.9</text>
</g>
<!-- github.com/CmdrVasquess/watched&#45;&gt;github.com/fsnotify/fsnotify@v1.4.9 -->
<g id="edge6" class="edge">
<title>github.com/CmdrVasquess/watched&#45;&gt;github.com/fsnotify/fsnotify@v1.4.9</title>
<path fill="none" stroke="#000000" d="M616.947,-220.584C703.8624,-208.1921 832.7822,-189.8114 922.9722,-176.9527"/>
<polygon fill="#000000" stroke="#000000" points="923.5417,-180.4069 932.9476,-175.5304 922.5536,-173.477 923.5417,-180.4069"/>
</g>
<!-- git.fractalqb.de/fractalqb/qbsllm@v0.11.1&#45;&gt;git.fractalqb.de/fractalqb/c4hgol@v0.10.3 -->
<g id="edge7" class="edge">
<title>git.fractalqb.de/fractalqb/qbsllm@v0.11.1&#45;&gt;git.fractalqb.de/fractalqb/c4hgol@v0.10.3</title>
<path fill="none" stroke="#000000" d="M697.2866,-143.8715C678.527,-135.7215 659.7032,-124.1727 646.8485,-108 633.0149,-90.5957 628.6082,-65.5042 627.4665,-46.2336"/>
<polygon fill="#000000" stroke="#000000" points="630.9637,-46.0889 627.129,-36.2124 623.9677,-46.3246 630.9637,-46.0889"/>
</g>
<!-- git.fractalqb.de/fractalqb/qbsllm@v0.11.1&#45;&gt;git.fractalqb.de/fractalqb/sllm@v0.12.0 -->
<g id="edge10" class="edge">
<title>git.fractalqb.de/fractalqb/qbsllm@v0.11.1&#45;&gt;git.fractalqb.de/fractalqb/sllm@v0.12.0</title>
<path fill="none" stroke="#000000" d="M696.5709,-143.9243C659.696,-133.8675 613.6341,-121.3052 575.2481,-110.8363"/>
<polygon fill="#000000" stroke="#000000" points="575.7219,-107.3377 565.1534,-108.0831 573.8801,-114.0911 575.7219,-107.3377"/>
</g>
<!-- git.fractalqb.de/fractalqb/c4qblog@v0.9.6 -->
<g id="node8" class="node">
<title>git.fractalqb.de/fractalqb/c4qblog@v0.9.6</title>
<polygon fill="#00ff00" stroke="#000000" points="869.8485,-108 655.8485,-108 655.8485,-72 869.8485,-72 869.8485,-108"/>
<text text-anchor="middle" x="762.8485" y="-86.9" font-family="Times,serif" font-size="12.00" fill="#000000">git.fractalqb.de/fractalqb/c4qblog@v0.9.6</text>
</g>
<!-- git.fractalqb.de/fractalqb/qbsllm@v0.11.1&#45;&gt;git.fractalqb.de/fractalqb/c4qblog@v0.9.6 -->
<g id="edge8" class="edge">
<title>git.fractalqb.de/fractalqb/qbsllm@v0.11.1&#45;&gt;git.fractalqb.de/fractalqb/c4qblog@v0.9.6</title>
<path fill="none" stroke="#000000" d="M762.8485,-143.8314C762.8485,-136.131 762.8485,-126.9743 762.8485,-118.4166"/>
<polygon fill="#000000" stroke="#000000" points="766.3486,-118.4132 762.8485,-108.4133 759.3486,-118.4133 766.3486,-118.4132"/>
</g>
<!-- git.fractalqb.de/fractalqb/qblog@v0.10.1 -->
<g id="node9" class="node">
<title>git.fractalqb.de/fractalqb/qblog@v0.10.1</title>
<polygon fill="#00ff00" stroke="#000000" points="982.3485,-36 773.3485,-36 773.3485,0 982.3485,0 982.3485,-36"/>
<text text-anchor="middle" x="877.8485" y="-14.9" font-family="Times,serif" font-size="12.00" fill="#000000">git.fractalqb.de/fractalqb/qblog@v0.10.1</text>
</g>
<!-- git.fractalqb.de/fractalqb/qbsllm@v0.11.1&#45;&gt;git.fractalqb.de/fractalqb/qblog@v0.10.1 -->
<g id="edge9" class="edge">
<title>git.fractalqb.de/fractalqb/qbsllm@v0.11.1&#45;&gt;git.fractalqb.de/fractalqb/qblog@v0.10.1</title>
<path fill="none" stroke="#000000" d="M833.8767,-143.915C851.5417,-135.8843 868.3995,-124.3899 878.8485,-108 890.4721,-89.7676 889.2378,-64.9501 885.6496,-45.9934"/>
<polygon fill="#000000" stroke="#000000" points="889.0494,-45.1572 883.4807,-36.1438 882.2132,-46.6626 889.0494,-45.1572"/>
</g>
<!-- golang.org/x/sys@v0.0.0&#45;20191005200804&#45;aed5e4c7ecf9 -->
<g id="node10" class="node">
<title>golang.org/x/sys@v0.0.0&#45;20191005200804&#45;aed5e4c7ecf9</title>
<polygon fill="#00ff00" stroke="#000000" points="1219.3485,-108 926.3485,-108 926.3485,-72 1219.3485,-72 1219.3485,-108"/>
<text text-anchor="middle" x="1072.8485" y="-86.9" font-family="Times,serif" font-size="12.00" fill="#000000">golang.org/x/sys@v0.0.0&#45;20191005200804&#45;aed5e4c7ecf9</text>
</g>
<!-- github.com/fsnotify/fsnotify@v1.4.9&#45;&gt;golang.org/x/sys@v0.0.0&#45;20191005200804&#45;aed5e4c7ecf9 -->
<g id="edge11" class="edge">
<title>github.com/fsnotify/fsnotify@v1.4.9&#45;&gt;golang.org/x/sys@v0.0.0&#45;20191005200804&#45;aed5e4c7ecf9</title>
<path fill="none" stroke="#000000" d="M1039.2039,-143.8314C1044.2811,-135.7079 1050.3712,-125.9637 1055.9661,-117.0118"/>
<polygon fill="#000000" stroke="#000000" points="1059.0082,-118.7483 1061.3402,-108.4133 1053.0722,-115.0383 1059.0082,-118.7483"/>
</g>
<!-- git.fractalqb.de/fractalqb/c4qblog@v0.9.6&#45;&gt;git.fractalqb.de/fractalqb/c4hgol@v0.10.3 -->
<g id="edge12" class="edge">
<title>git.fractalqb.de/fractalqb/c4qblog@v0.9.6&#45;&gt;git.fractalqb.de/fractalqb/c4hgol@v0.10.3</title>
<path fill="none" stroke="#000000" d="M728.7823,-71.8314C711.1952,-62.4516 689.5569,-50.9112 670.8317,-40.9244"/>
<polygon fill="#000000" stroke="#000000" points="672.3744,-37.7805 661.9038,-36.1628 669.0803,-43.957 672.3744,-37.7805"/>
</g>
<!-- git.fractalqb.de/fractalqb/c4qblog@v0.9.6&#45;&gt;git.fractalqb.de/fractalqb/qblog@v0.10.1 -->
<g id="edge13" class="edge">
<title>git.fractalqb.de/fractalqb/c4qblog@v0.9.6&#45;&gt;git.fractalqb.de/fractalqb/qblog@v0.10.1</title>
<path fill="none" stroke="#000000" d="M791.8679,-71.8314C806.5771,-62.6221 824.6129,-51.3301 840.3607,-41.4706"/>
<polygon fill="#000000" stroke="#000000" points="842.2199,-44.436 848.8384,-36.1628 838.5052,-38.5029 842.2199,-44.436"/>
</g>
</g>
</svg>
