<?xml version="1.0" encoding="UTF-8" standalone="no"?>
<!DOCTYPE svg PUBLIC "-//W3C//DTD SVG 1.1//EN"
 "http://www.w3.org/Graphics/SVG/1.1/DTD/svg11.dtd">
<!-- Generated by graphviz version 2.40.1 (20161225.0304)
 -->
<!-- Title: gomodgraph Pages: 1 -->
<svg width="4999pt" height="404pt"
 viewBox="0.00 0.00 4999.00 404.00" xmlns="http://www.w3.org/2000/svg" xmlns:xlink="http://www.w3.org/1999/xlink">
<g id="graph0" class="graph" transform="scale(1 1) rotate(0) translate(4 400)">
<title>gomodgraph</title>
<polygon fill="#ffffff" stroke="transparent" points="-4,4 -4,-400 4995,-400 4995,4 -4,4"/>
<!-- github.com/CmdrVasquess/watched -->
<g id="node1" class="node">
<title>github.com/CmdrVasquess/watched</title>
<polygon fill="none" stroke="#000000" points="2693,-396 2505,-396 2505,-360 2693,-360 2693,-396"/>
<text text-anchor="middle" x="2599" y="-374.9" font-family="Times,serif" font-size="12.00" fill="#000000">github.com/CmdrVasquess/watched</text>
</g>
<!-- git.fractalqb.de/fractalqb/c4hgol@v0.10.3 -->
<g id="node2" class="node">
<title>git.fractalqb.de/fractalqb/c4hgol@v0.10.3</title>
<polygon fill="#00ff00" stroke="#000000" points="1836,-180 1622,-180 1622,-144 1836,-144 1836,-180"/>
<text text-anchor="middle" x="1729" y="-158.9" font-family="Times,serif" font-size="12.00" fill="#000000">git.fractalqb.de/fractalqb/c4hgol@v0.10.3</text>
</g>
<!-- github.com/CmdrVasquess/watched&#45;&gt;git.fractalqb.de/fractalqb/c4hgol@v0.10.3 -->
<g id="edge1" class="edge">
<title>github.com/CmdrVasquess/watched&#45;&gt;git.fractalqb.de/fractalqb/c4hgol@v0.10.3</title>
<path fill="none" stroke="#000000" d="M2504.8726,-374.3672C2344.8439,-367.551 2026.5366,-351.043 1918,-324 1839.967,-304.5573 1804.1676,-313.2021 1752,-252 1737.4354,-234.913 1731.9098,-209.7937 1729.8994,-190.4318"/>
<polygon fill="#000000" stroke="#000000" points="1733.3803,-190.0507 1729.1091,-180.355 1726.4018,-190.5981 1733.3803,-190.0507"/>
</g>
<!-- git.fractalqb.de/fractalqb/ggja@v0.10.1 -->
<g id="node3" class="node">
<title>git.fractalqb.de/fractalqb/ggja@v0.10.1</title>
<polygon fill="#00ff00" stroke="#000000" points="2399,-324 2197,-324 2197,-288 2399,-288 2399,-324"/>
<text text-anchor="middle" x="2298" y="-302.9" font-family="Times,serif" font-size="12.00" fill="#000000">git.fractalqb.de/fractalqb/ggja@v0.10.1</text>
</g>
<!-- github.com/CmdrVasquess/watched&#45;&gt;git.fractalqb.de/fractalqb/ggja@v0.10.1 -->
<g id="edge2" class="edge">
<title>github.com/CmdrVasquess/watched&#45;&gt;git.fractalqb.de/fractalqb/ggja@v0.10.1</title>
<path fill="none" stroke="#000000" d="M2523.4335,-359.9243C2480.7729,-349.7198 2427.3276,-336.9355 2383.184,-326.3762"/>
<polygon fill="#000000" stroke="#000000" points="2383.8764,-322.9432 2373.3365,-324.0207 2382.2478,-329.7511 2383.8764,-322.9432"/>
</g>
<!-- git.fractalqb.de/fractalqb/gomk@v0.0.0&#45;20201231131048&#45;ed6364d7a3dc -->
<g id="node4" class="node">
<title>git.fractalqb.de/fractalqb/gomk@v0.0.0&#45;20201231131048&#45;ed6364d7a3dc</title>
<polygon fill="#00ff00" stroke="#000000" points="2781,-324 2417,-324 2417,-288 2781,-288 2781,-324"/>
<text text-anchor="middle" x="2599" y="-302.9" font-family="Times,serif" font-size="12.00" fill="#000000">git.fractalqb.de/fractalqb/gomk@v0.0.0&#45;20201231131048&#45;ed6364d7a3dc</text>
</g>
<!-- github.com/CmdrVasquess/watched&#45;&gt;git.fractalqb.de/fractalqb/gomk@v0.0.0&#45;20201231131048&#45;ed6364d7a3dc -->
<g id="edge3" class="edge">
<title>github.com/CmdrVasquess/watched&#45;&gt;git.fractalqb.de/fractalqb/gomk@v0.0.0&#45;20201231131048&#45;ed6364d7a3dc</title>
<path fill="none" stroke="#000000" d="M2599,-359.8314C2599,-352.131 2599,-342.9743 2599,-334.4166"/>
<polygon fill="#000000" stroke="#000000" points="2602.5001,-334.4132 2599,-324.4133 2595.5001,-334.4133 2602.5001,-334.4132"/>
</g>
<!-- git.fractalqb.de/fractalqb/qbsllm@v0.11.1 -->
<g id="node5" class="node">
<title>git.fractalqb.de/fractalqb/qbsllm@v0.11.1</title>
<polygon fill="#00ff00" stroke="#000000" points="2140.5,-324 1927.5,-324 1927.5,-288 2140.5,-288 2140.5,-324"/>
<text text-anchor="middle" x="2034" y="-302.9" font-family="Times,serif" font-size="12.00" fill="#000000">git.fractalqb.de/fractalqb/qbsllm@v0.11.1</text>
</g>
<!-- github.com/CmdrVasquess/watched&#45;&gt;git.fractalqb.de/fractalqb/qbsllm@v0.11.1 -->
<g id="edge4" class="edge">
<title>github.com/CmdrVasquess/watched&#45;&gt;git.fractalqb.de/fractalqb/qbsllm@v0.11.1</title>
<path fill="none" stroke="#000000" d="M2504.9282,-367.2956C2414.992,-356.8875 2275.6216,-340.304 2155,-324 2153.5202,-323.8 2152.0303,-323.5974 2150.5322,-323.3924"/>
<polygon fill="#000000" stroke="#000000" points="2150.9266,-319.9138 2140.5412,-322.0098 2149.9669,-326.8477 2150.9266,-319.9138"/>
</g>
<!-- git.fractalqb.de/fractalqb/sllm@v0.12.0 -->
<g id="node6" class="node">
<title>git.fractalqb.de/fractalqb/sllm@v0.12.0</title>
<polygon fill="#00ff00" stroke="#000000" points="2268.5,-252 2067.5,-252 2067.5,-216 2268.5,-216 2268.5,-252"/>
<text text-anchor="middle" x="2168" y="-230.9" font-family="Times,serif" font-size="12.00" fill="#000000">git.fractalqb.de/fractalqb/sllm@v0.12.0</text>
</g>
<!-- github.com/CmdrVasquess/watched&#45;&gt;git.fractalqb.de/fractalqb/sllm@v0.12.0 -->
<g id="edge5" class="edge">
<title>github.com/CmdrVasquess/watched&#45;&gt;git.fractalqb.de/fractalqb/sllm@v0.12.0</title>
<path fill="none" stroke="#000000" d="M2504.6439,-371.2803C2390.5814,-362.2906 2210.9565,-345.0196 2188,-324 2171.1888,-308.6072 2166.8921,-282.4899 2166.3889,-262.3428"/>
<polygon fill="#000000" stroke="#000000" points="2169.8896,-262.1712 2166.4346,-252.1556 2162.8897,-262.1397 2169.8896,-262.1712"/>
</g>
<!-- github.com/anthonynsimon/bild@v0.13.0 -->
<g id="node7" class="node">
<title>github.com/anthonynsimon/bild@v0.13.0</title>
<polygon fill="#00ff00" stroke="#000000" points="3013,-324 2799,-324 2799,-288 3013,-288 3013,-324"/>
<text text-anchor="middle" x="2906" y="-302.9" font-family="Times,serif" font-size="12.00" fill="#000000">github.com/anthonynsimon/bild@v0.13.0</text>
</g>
<!-- github.com/CmdrVasquess/watched&#45;&gt;github.com/anthonynsimon/bild@v0.13.0 -->
<g id="edge6" class="edge">
<title>github.com/CmdrVasquess/watched&#45;&gt;github.com/anthonynsimon/bild@v0.13.0</title>
<path fill="none" stroke="#000000" d="M2676.0728,-359.9243C2719.6752,-349.6983 2774.3235,-336.8818 2819.4017,-326.3097"/>
<polygon fill="#000000" stroke="#000000" points="2820.2252,-329.7116 2829.1618,-324.0207 2818.6268,-322.8965 2820.2252,-329.7116"/>
</g>
<!-- github.com/fsnotify/fsnotify@v1.4.9 -->
<g id="node8" class="node">
<title>github.com/fsnotify/fsnotify@v1.4.9</title>
<polygon fill="#00ff00" stroke="#000000" points="3258.5,-324 3069.5,-324 3069.5,-288 3258.5,-288 3258.5,-324"/>
<text text-anchor="middle" x="3164" y="-302.9" font-family="Times,serif" font-size="12.00" fill="#000000">github.com/fsnotify/fsnotify@v1.4.9</text>
</g>
<!-- github.com/CmdrVasquess/watched&#45;&gt;github.com/fsnotify/fsnotify@v1.4.9 -->
<g id="edge7" class="edge">
<title>github.com/CmdrVasquess/watched&#45;&gt;github.com/fsnotify/fsnotify@v1.4.9</title>
<path fill="none" stroke="#000000" d="M2693.0459,-368.135C2785.3608,-358.1519 2930.0912,-341.7 3055,-324 3056.3085,-323.8146 3057.6256,-323.6261 3058.9498,-323.4348"/>
<polygon fill="#000000" stroke="#000000" points="3059.8361,-326.842 3069.218,-321.9196 3058.8141,-319.917 3059.8361,-326.842"/>
</g>
<!-- golang.org/x/image@v0.0.0&#45;20201208152932&#45;35266b937fa6 -->
<g id="node9" class="node">
<title>golang.org/x/image@v0.0.0&#45;20201208152932&#45;35266b937fa6</title>
<polygon fill="#00ff00" stroke="#000000" points="3399,-252 3089,-252 3089,-216 3399,-216 3399,-252"/>
<text text-anchor="middle" x="3244" y="-230.9" font-family="Times,serif" font-size="12.00" fill="#000000">golang.org/x/image@v0.0.0&#45;20201208152932&#45;35266b937fa6</text>
</g>
<!-- github.com/CmdrVasquess/watched&#45;&gt;golang.org/x/image@v0.0.0&#45;20201208152932&#45;35266b937fa6 -->
<g id="edge8" class="edge">
<title>github.com/CmdrVasquess/watched&#45;&gt;golang.org/x/image@v0.0.0&#45;20201208152932&#45;35266b937fa6</title>
<path fill="none" stroke="#000000" d="M2693.1831,-372.6547C2799.6066,-365.4535 2965.3832,-350.3915 3022,-324 3043.3803,-314.0337 3040.4843,-299.6426 3061,-288 3086.2554,-273.6676 3115.6733,-262.8188 3143.4413,-254.7486"/>
<polygon fill="#000000" stroke="#000000" points="3144.5056,-258.0851 3153.1848,-252.0087 3142.6107,-251.3464 3144.5056,-258.0851"/>
</g>
<!-- golang.org/x/sys@v0.0.0&#45;20201231184435&#45;2d18734c6014 -->
<g id="node10" class="node">
<title>golang.org/x/sys@v0.0.0&#45;20201231184435&#45;2d18734c6014</title>
<polygon fill="#00ff00" stroke="#000000" points="3575.5,-324 3276.5,-324 3276.5,-288 3575.5,-288 3575.5,-324"/>
<text text-anchor="middle" x="3426" y="-302.9" font-family="Times,serif" font-size="12.00" fill="#000000">golang.org/x/sys@v0.0.0&#45;20201231184435&#45;2d18734c6014</text>
</g>
<!-- github.com/CmdrVasquess/watched&#45;&gt;golang.org/x/sys@v0.0.0&#45;20201231184435&#45;2d18734c6014 -->
<g id="edge9" class="edge">
<title>github.com/CmdrVasquess/watched&#45;&gt;golang.org/x/sys@v0.0.0&#45;20201231184435&#45;2d18734c6014</title>
<path fill="none" stroke="#000000" d="M2693.2594,-371.3733C2820.8324,-362.1842 3055.8156,-344.4801 3266.3119,-324.1492"/>
<polygon fill="#000000" stroke="#000000" points="3266.701,-327.628 3276.3165,-323.1791 3266.0253,-320.6607 3266.701,-327.628"/>
</g>
<!-- git.fractalqb.de/fractalqb/qbsllm@v0.11.1&#45;&gt;git.fractalqb.de/fractalqb/c4hgol@v0.10.3 -->
<g id="edge10" class="edge">
<title>git.fractalqb.de/fractalqb/qbsllm@v0.11.1&#45;&gt;git.fractalqb.de/fractalqb/c4hgol@v0.10.3</title>
<path fill="none" stroke="#000000" d="M1927.3325,-291.1221C1871.11,-281.6628 1809.11,-268.1628 1786,-252 1764.1183,-236.6963 1748.7884,-210.029 1739.58,-189.6829"/>
<polygon fill="#000000" stroke="#000000" points="1742.7062,-188.0923 1735.5493,-180.2801 1736.2724,-190.8503 1742.7062,-188.0923"/>
</g>
<!-- git.fractalqb.de/fractalqb/qbsllm@v0.11.1&#45;&gt;git.fractalqb.de/fractalqb/sllm@v0.12.0 -->
<g id="edge13" class="edge">
<title>git.fractalqb.de/fractalqb/qbsllm@v0.11.1&#45;&gt;git.fractalqb.de/fractalqb/sllm@v0.12.0</title>
<path fill="none" stroke="#000000" d="M2067.8139,-287.8314C2085.2707,-278.4516 2106.7487,-266.9112 2125.3352,-256.9244"/>
<polygon fill="#000000" stroke="#000000" points="2127.0446,-259.9792 2134.197,-252.1628 2123.7314,-253.8129 2127.0446,-259.9792"/>
</g>
<!-- git.fractalqb.de/fractalqb/c4qblog@v0.9.6 -->
<g id="node11" class="node">
<title>git.fractalqb.de/fractalqb/c4qblog@v0.9.6</title>
<polygon fill="#00ff00" stroke="#000000" points="2009,-252 1795,-252 1795,-216 2009,-216 2009,-252"/>
<text text-anchor="middle" x="1902" y="-230.9" font-family="Times,serif" font-size="12.00" fill="#000000">git.fractalqb.de/fractalqb/c4qblog@v0.9.6</text>
</g>
<!-- git.fractalqb.de/fractalqb/qbsllm@v0.11.1&#45;&gt;git.fractalqb.de/fractalqb/c4qblog@v0.9.6 -->
<g id="edge11" class="edge">
<title>git.fractalqb.de/fractalqb/qbsllm@v0.11.1&#45;&gt;git.fractalqb.de/fractalqb/c4qblog@v0.9.6</title>
<path fill="none" stroke="#000000" d="M2000.6908,-287.8314C1983.5727,-278.4942 1962.5294,-267.016 1944.2778,-257.0606"/>
<polygon fill="#000000" stroke="#000000" points="1945.7535,-253.8788 1935.2985,-252.1628 1942.4015,-260.024 1945.7535,-253.8788"/>
</g>
<!-- git.fractalqb.de/fractalqb/qblog@v0.10.1 -->
<g id="node12" class="node">
<title>git.fractalqb.de/fractalqb/qblog@v0.10.1</title>
<polygon fill="#00ff00" stroke="#000000" points="2063.5,-180 1854.5,-180 1854.5,-144 2063.5,-144 2063.5,-180"/>
<text text-anchor="middle" x="1959" y="-158.9" font-family="Times,serif" font-size="12.00" fill="#000000">git.fractalqb.de/fractalqb/qblog@v0.10.1</text>
</g>
<!-- git.fractalqb.de/fractalqb/qbsllm@v0.11.1&#45;&gt;git.fractalqb.de/fractalqb/qblog@v0.10.1 -->
<g id="edge12" class="edge">
<title>git.fractalqb.de/fractalqb/qbsllm@v0.11.1&#45;&gt;git.fractalqb.de/fractalqb/qblog@v0.10.1</title>
<path fill="none" stroke="#000000" d="M2034.1346,-287.9713C2033.5431,-268.9558 2030.4648,-238.6668 2018,-216 2011.9363,-204.9734 2002.772,-194.9865 1993.4621,-186.6851"/>
<polygon fill="#000000" stroke="#000000" points="1995.5753,-183.8888 1985.6725,-180.1224 1991.0651,-189.2422 1995.5753,-183.8888"/>
</g>
<!-- github.com/spf13/cobra@v0.0.5 -->
<g id="node13" class="node">
<title>github.com/spf13/cobra@v0.0.5</title>
<polygon fill="#00ff00" stroke="#000000" points="2743,-252 2573,-252 2573,-216 2743,-216 2743,-252"/>
<text text-anchor="middle" x="2658" y="-230.9" font-family="Times,serif" font-size="12.00" fill="#000000">github.com/spf13/cobra@v0.0.5</text>
</g>
<!-- github.com/anthonynsimon/bild@v0.13.0&#45;&gt;github.com/spf13/cobra@v0.0.5 -->
<g id="edge16" class="edge">
<title>github.com/anthonynsimon/bild@v0.13.0&#45;&gt;github.com/spf13/cobra@v0.0.5</title>
<path fill="none" stroke="#000000" d="M2843.7392,-287.9243C2809.2466,-277.9103 2766.197,-265.412 2730.2301,-254.97"/>
<polygon fill="#000000" stroke="#000000" points="2730.8657,-251.5101 2720.2864,-252.0831 2728.914,-258.2325 2730.8657,-251.5101"/>
</g>
<!-- golang.org/x/image@v0.0.0&#45;20190703141733&#45;d6a02ce849c9 -->
<g id="node14" class="node">
<title>golang.org/x/image@v0.0.0&#45;20190703141733&#45;d6a02ce849c9</title>
<polygon fill="#c0c0c0" stroke="#000000" points="3071,-252 2761,-252 2761,-216 3071,-216 3071,-252"/>
<text text-anchor="middle" x="2916" y="-230.9" font-family="Times,serif" font-size="12.00" fill="#000000">golang.org/x/image@v0.0.0&#45;20190703141733&#45;d6a02ce849c9</text>
</g>
<!-- github.com/anthonynsimon/bild@v0.13.0&#45;&gt;golang.org/x/image@v0.0.0&#45;20190703141733&#45;d6a02ce849c9 -->
<g id="edge17" class="edge">
<title>github.com/anthonynsimon/bild@v0.13.0&#45;&gt;golang.org/x/image@v0.0.0&#45;20190703141733&#45;d6a02ce849c9</title>
<path fill="none" stroke="#000000" d="M2908.5234,-287.8314C2909.5929,-280.131 2910.8647,-270.9743 2912.0532,-262.4166"/>
<polygon fill="#000000" stroke="#000000" points="2915.5336,-262.7997 2913.4426,-252.4133 2908.6001,-261.8367 2915.5336,-262.7997"/>
</g>
<!-- golang.org/x/sys@v0.0.0&#45;20191005200804&#45;aed5e4c7ecf9 -->
<g id="node16" class="node">
<title>golang.org/x/sys@v0.0.0&#45;20191005200804&#45;aed5e4c7ecf9</title>
<polygon fill="#c0c0c0" stroke="#000000" points="3710.5,-252 3417.5,-252 3417.5,-216 3710.5,-216 3710.5,-252"/>
<text text-anchor="middle" x="3564" y="-230.9" font-family="Times,serif" font-size="12.00" fill="#000000">golang.org/x/sys@v0.0.0&#45;20191005200804&#45;aed5e4c7ecf9</text>
</g>
<!-- github.com/fsnotify/fsnotify@v1.4.9&#45;&gt;golang.org/x/sys@v0.0.0&#45;20191005200804&#45;aed5e4c7ecf9 -->
<g id="edge19" class="edge">
<title>github.com/fsnotify/fsnotify@v1.4.9&#45;&gt;golang.org/x/sys@v0.0.0&#45;20191005200804&#45;aed5e4c7ecf9</title>
<path fill="none" stroke="#000000" d="M3258.5411,-288.9826C3317.0748,-278.4465 3392.4884,-264.8721 3453.7369,-253.8474"/>
<polygon fill="#000000" stroke="#000000" points="3454.6072,-257.247 3463.829,-252.0308 3453.3671,-250.3578 3454.6072,-257.247"/>
</g>
<!-- golang.org/x/text@v0.3.0 -->
<g id="node15" class="node">
<title>golang.org/x/text@v0.3.0</title>
<polygon fill="#00ff00" stroke="#000000" points="4991,-108 4853,-108 4853,-72 4991,-72 4991,-108"/>
<text text-anchor="middle" x="4922" y="-86.9" font-family="Times,serif" font-size="12.00" fill="#000000">golang.org/x/text@v0.3.0</text>
</g>
<!-- golang.org/x/image@v0.0.0&#45;20201208152932&#45;35266b937fa6&#45;&gt;golang.org/x/text@v0.3.0 -->
<g id="edge20" class="edge">
<title>golang.org/x/image@v0.0.0&#45;20201208152932&#45;35266b937fa6&#45;&gt;golang.org/x/text@v0.3.0</title>
<path fill="none" stroke="#000000" d="M3399.4247,-216.7161C3402.6436,-216.4646 3405.8383,-216.2254 3409,-216 3883.1773,-182.1993 4005.7027,-234.0535 4478,-180 4607.2267,-165.2103 4754.7814,-131.9703 4843.0555,-110.2898"/>
<polygon fill="#000000" stroke="#000000" points="4844.1235,-113.6313 4852.9931,-107.8364 4842.4457,-106.8354 4844.1235,-113.6313"/>
</g>
<!-- git.fractalqb.de/fractalqb/c4qblog@v0.9.6&#45;&gt;git.fractalqb.de/fractalqb/c4hgol@v0.10.3 -->
<g id="edge14" class="edge">
<title>git.fractalqb.de/fractalqb/c4qblog@v0.9.6&#45;&gt;git.fractalqb.de/fractalqb/c4hgol@v0.10.3</title>
<path fill="none" stroke="#000000" d="M1858.3448,-215.8314C1835.1042,-206.159 1806.3432,-194.1891 1781.8477,-183.9944"/>
<polygon fill="#000000" stroke="#000000" points="1782.9185,-180.6491 1772.3413,-180.038 1780.2288,-187.1117 1782.9185,-180.6491"/>
</g>
<!-- git.fractalqb.de/fractalqb/c4qblog@v0.9.6&#45;&gt;git.fractalqb.de/fractalqb/qblog@v0.10.1 -->
<g id="edge15" class="edge">
<title>git.fractalqb.de/fractalqb/c4qblog@v0.9.6&#45;&gt;git.fractalqb.de/fractalqb/qblog@v0.10.1</title>
<path fill="none" stroke="#000000" d="M1916.3835,-215.8314C1922.9486,-207.5386 1930.8507,-197.557 1938.0578,-188.4533"/>
<polygon fill="#000000" stroke="#000000" points="1940.9599,-190.4262 1944.4228,-180.4133 1935.4716,-186.0813 1940.9599,-190.4262"/>
</g>
<!-- github.com/BurntSushi/toml@v0.3.1 -->
<g id="node17" class="node">
<title>github.com/BurntSushi/toml@v0.3.1</title>
<polygon fill="#00ff00" stroke="#000000" points="2556.5,-180 2365.5,-180 2365.5,-144 2556.5,-144 2556.5,-180"/>
<text text-anchor="middle" x="2461" y="-158.9" font-family="Times,serif" font-size="12.00" fill="#000000">github.com/BurntSushi/toml@v0.3.1</text>
</g>
<!-- github.com/spf13/cobra@v0.0.5&#45;&gt;github.com/BurntSushi/toml@v0.3.1 -->
<g id="edge21" class="edge">
<title>github.com/spf13/cobra@v0.0.5&#45;&gt;github.com/BurntSushi/toml@v0.3.1</title>
<path fill="none" stroke="#000000" d="M2608.5429,-215.9243C2581.7289,-206.1243 2548.4051,-193.945 2520.2153,-183.6422"/>
<polygon fill="#000000" stroke="#000000" points="2521.0713,-180.2286 2510.4775,-180.0831 2518.6684,-186.8033 2521.0713,-180.2286"/>
</g>
<!-- github.com/cpuguy83/go&#45;md2man@v1.0.10 -->
<g id="node18" class="node">
<title>github.com/cpuguy83/go&#45;md2man@v1.0.10</title>
<polygon fill="#00ff00" stroke="#000000" points="2308.5,-180 2081.5,-180 2081.5,-144 2308.5,-144 2308.5,-180"/>
<text text-anchor="middle" x="2195" y="-158.9" font-family="Times,serif" font-size="12.00" fill="#000000">github.com/cpuguy83/go&#45;md2man@v1.0.10</text>
</g>
<!-- github.com/spf13/cobra@v0.0.5&#45;&gt;github.com/cpuguy83/go&#45;md2man@v1.0.10 -->
<g id="edge22" class="edge">
<title>github.com/spf13/cobra@v0.0.5&#45;&gt;github.com/cpuguy83/go&#45;md2man@v1.0.10</title>
<path fill="none" stroke="#000000" d="M2572.809,-220.7522C2501.6769,-209.6906 2399.3168,-193.7728 2319.0786,-181.2952"/>
<polygon fill="#000000" stroke="#000000" points="2319.3279,-177.7919 2308.9089,-179.7137 2318.2523,-184.7088 2319.3279,-177.7919"/>
</g>
<!-- github.com/inconshreveable/mousetrap@v1.0.0 -->
<g id="node19" class="node">
<title>github.com/inconshreveable/mousetrap@v1.0.0</title>
<polygon fill="#00ff00" stroke="#000000" points="3001,-180 2759,-180 2759,-144 3001,-144 3001,-180"/>
<text text-anchor="middle" x="2880" y="-158.9" font-family="Times,serif" font-size="12.00" fill="#000000">github.com/inconshreveable/mousetrap@v1.0.0</text>
</g>
<!-- github.com/spf13/cobra@v0.0.5&#45;&gt;github.com/inconshreveable/mousetrap@v1.0.0 -->
<g id="edge23" class="edge">
<title>github.com/spf13/cobra@v0.0.5&#45;&gt;github.com/inconshreveable/mousetrap@v1.0.0</title>
<path fill="none" stroke="#000000" d="M2713.7334,-215.9243C2744.346,-205.9959 2782.4881,-193.6255 2814.5155,-183.2382"/>
<polygon fill="#000000" stroke="#000000" points="2815.8112,-186.4975 2824.2436,-180.0831 2813.6516,-179.839 2815.8112,-186.4975"/>
</g>
<!-- github.com/mitchellh/go&#45;homedir@v1.1.0 -->
<g id="node20" class="node">
<title>github.com/mitchellh/go&#45;homedir@v1.1.0</title>
<polygon fill="#00ff00" stroke="#000000" points="3234.5,-180 3019.5,-180 3019.5,-144 3234.5,-144 3234.5,-180"/>
<text text-anchor="middle" x="3127" y="-158.9" font-family="Times,serif" font-size="12.00" fill="#000000">github.com/mitchellh/go&#45;homedir@v1.1.0</text>
</g>
<!-- github.com/spf13/cobra@v0.0.5&#45;&gt;github.com/mitchellh/go&#45;homedir@v1.1.0 -->
<g id="edge24" class="edge">
<title>github.com/spf13/cobra@v0.0.5&#45;&gt;github.com/mitchellh/go&#45;homedir@v1.1.0</title>
<path fill="none" stroke="#000000" d="M2743.0199,-217.52C2746.0487,-216.9965 2749.0492,-216.4881 2752,-216 2863.1022,-197.6233 2893.7866,-196.8333 3009.3188,-180.0836"/>
<polygon fill="#000000" stroke="#000000" points="3009.8773,-183.5392 3019.2674,-178.6323 3008.8668,-176.6125 3009.8773,-183.5392"/>
</g>
<!-- github.com/spf13/pflag@v1.0.3 -->
<g id="node21" class="node">
<title>github.com/spf13/pflag@v1.0.3</title>
<polygon fill="#00ff00" stroke="#000000" points="4834.5,-108 4667.5,-108 4667.5,-72 4834.5,-72 4834.5,-108"/>
<text text-anchor="middle" x="4751" y="-86.9" font-family="Times,serif" font-size="12.00" fill="#000000">github.com/spf13/pflag@v1.0.3</text>
</g>
<!-- github.com/spf13/cobra@v0.0.5&#45;&gt;github.com/spf13/pflag@v1.0.3 -->
<g id="edge25" class="edge">
<title>github.com/spf13/cobra@v0.0.5&#45;&gt;github.com/spf13/pflag@v1.0.3</title>
<path fill="none" stroke="#000000" d="M2743.2279,-217.1693C2746.1836,-216.7485 2749.1142,-216.3566 2752,-216 3032.3218,-181.3632 3738.9975,-159.9563 4021,-144 4301.2302,-128.144 4375.4702,-142.9925 4657.2302,-108.1331"/>
<polygon fill="#000000" stroke="#000000" points="4657.8516,-111.5828 4667.3415,-106.872 4656.9851,-104.6367 4657.8516,-111.5828"/>
</g>
<!-- github.com/spf13/viper@v1.3.2 -->
<g id="node22" class="node">
<title>github.com/spf13/viper@v1.3.2</title>
<polygon fill="#00ff00" stroke="#000000" points="2741.5,-180 2574.5,-180 2574.5,-144 2741.5,-144 2741.5,-180"/>
<text text-anchor="middle" x="2658" y="-158.9" font-family="Times,serif" font-size="12.00" fill="#000000">github.com/spf13/viper@v1.3.2</text>
</g>
<!-- github.com/spf13/cobra@v0.0.5&#45;&gt;github.com/spf13/viper@v1.3.2 -->
<g id="edge26" class="edge">
<title>github.com/spf13/cobra@v0.0.5&#45;&gt;github.com/spf13/viper@v1.3.2</title>
<path fill="none" stroke="#000000" d="M2658,-215.8314C2658,-208.131 2658,-198.9743 2658,-190.4166"/>
<polygon fill="#000000" stroke="#000000" points="2661.5001,-190.4132 2658,-180.4133 2654.5001,-190.4133 2661.5001,-190.4132"/>
</g>
<!-- gopkg.in/yaml.v2@v2.2.2 -->
<g id="node23" class="node">
<title>gopkg.in/yaml.v2@v2.2.2</title>
<polygon fill="#00ff00" stroke="#000000" points="367.5,-108 226.5,-108 226.5,-72 367.5,-72 367.5,-108"/>
<text text-anchor="middle" x="297" y="-86.9" font-family="Times,serif" font-size="12.00" fill="#000000">gopkg.in/yaml.v2@v2.2.2</text>
</g>
<!-- github.com/spf13/cobra@v0.0.5&#45;&gt;gopkg.in/yaml.v2@v2.2.2 -->
<g id="edge27" class="edge">
<title>github.com/spf13/cobra@v0.0.5&#45;&gt;gopkg.in/yaml.v2@v2.2.2</title>
<path fill="none" stroke="#000000" d="M2572.7873,-224.1809C2497.2099,-214.4956 2393.2042,-198.4875 2356,-180 2334.8753,-169.5028 2338.8878,-152.796 2317,-144 2218.3698,-104.3634 509.8398,-117.8438 404,-108 395.4145,-107.2015 386.4784,-106.1131 377.5916,-104.8639"/>
<polygon fill="#000000" stroke="#000000" points="378.0036,-101.3869 367.6003,-103.3922 376.9835,-108.3122 378.0036,-101.3869"/>
</g>
<!-- golang.org/x/image@v0.0.0&#45;20190703141733&#45;d6a02ce849c9&#45;&gt;golang.org/x/text@v0.3.0 -->
<g id="edge18" class="edge">
<title>golang.org/x/image@v0.0.0&#45;20190703141733&#45;d6a02ce849c9&#45;&gt;golang.org/x/text@v0.3.0</title>
<path fill="none" stroke="#000000" d="M3071.3557,-216.6651C3074.2599,-216.4332 3077.1435,-216.2111 3080,-216 3497.3896,-185.1496 3603.2956,-206.2457 4021,-180 4109.9291,-174.4123 4716.2647,-125.356 4842.6695,-107.9867"/>
<polygon fill="#000000" stroke="#000000" points="4843.3903,-111.4185 4852.7757,-106.5027 4842.3732,-104.4928 4843.3903,-111.4185"/>
</g>
<!-- github.com/russross/blackfriday@v1.5.2 -->
<g id="node25" class="node">
<title>github.com/russross/blackfriday@v1.5.2</title>
<polygon fill="#00ff00" stroke="#000000" points="208,-108 0,-108 0,-72 208,-72 208,-108"/>
<text text-anchor="middle" x="104" y="-86.9" font-family="Times,serif" font-size="12.00" fill="#000000">github.com/russross/blackfriday@v1.5.2</text>
</g>
<!-- github.com/cpuguy83/go&#45;md2man@v1.0.10&#45;&gt;github.com/russross/blackfriday@v1.5.2 -->
<g id="edge29" class="edge">
<title>github.com/cpuguy83/go&#45;md2man@v1.0.10&#45;&gt;github.com/russross/blackfriday@v1.5.2</title>
<path fill="none" stroke="#000000" d="M2081.4654,-144.854C2078.2788,-144.5434 2075.1187,-144.2574 2072,-144 1253.5057,-76.4382 1040.0757,-180.1915 218.2948,-108.0364"/>
<polygon fill="#000000" stroke="#000000" points="218.5629,-104.5465 208.2935,-107.1522 217.9464,-111.5193 218.5629,-104.5465"/>
</g>
<!-- github.com/spf13/viper@v1.3.2&#45;&gt;golang.org/x/text@v0.3.0 -->
<g id="edge48" class="edge">
<title>github.com/spf13/viper@v1.3.2&#45;&gt;golang.org/x/text@v0.3.0</title>
<path fill="none" stroke="#000000" d="M2741.6423,-144.9873C2744.4568,-144.6218 2747.2485,-144.2905 2750,-144 3209.5522,-95.4756 4365.5358,-163.6575 4842.7081,-107.9689"/>
<polygon fill="#000000" stroke="#000000" points="4843.2989,-111.4233 4852.8116,-106.7587 4842.4663,-104.4729 4843.2989,-111.4233"/>
</g>
<!-- github.com/spf13/viper@v1.3.2&#45;&gt;github.com/spf13/pflag@v1.0.3 -->
<g id="edge42" class="edge">
<title>github.com/spf13/viper@v1.3.2&#45;&gt;github.com/spf13/pflag@v1.0.3</title>
<path fill="none" stroke="#000000" d="M2741.6429,-144.9933C2744.4573,-144.6261 2747.2488,-144.2928 2750,-144 3590.5331,-54.5397 3813.4319,-196.6927 4657.3993,-108.0602"/>
<polygon fill="#000000" stroke="#000000" points="4657.7808,-111.5394 4667.3571,-107.0067 4657.0443,-104.5783 4657.7808,-111.5394"/>
</g>
<!-- github.com/spf13/viper@v1.3.2&#45;&gt;gopkg.in/yaml.v2@v2.2.2 -->
<g id="edge49" class="edge">
<title>github.com/spf13/viper@v1.3.2&#45;&gt;gopkg.in/yaml.v2@v2.2.2</title>
<path fill="none" stroke="#000000" d="M2574.4516,-145.1155C2571.2666,-144.6988 2568.1078,-144.3239 2565,-144 2082.4362,-93.7111 864.1054,-162.5087 382,-108 380.6932,-107.8522 379.3768,-107.6937 378.053,-107.5252"/>
<polygon fill="#000000" stroke="#000000" points="378.1902,-104.0092 367.7947,-106.0546 377.1968,-110.9383 378.1902,-104.0092"/>
</g>
<!-- github.com/armon/consul&#45;api@v0.0.0&#45;20180202201655&#45;eb2c6b5be1b6 -->
<g id="node26" class="node">
<title>github.com/armon/consul&#45;api@v0.0.0&#45;20180202201655&#45;eb2c6b5be1b6</title>
<polygon fill="#00ff00" stroke="#000000" points="3504.5,-108 3147.5,-108 3147.5,-72 3504.5,-72 3504.5,-108"/>
<text text-anchor="middle" x="3326" y="-86.9" font-family="Times,serif" font-size="12.00" fill="#000000">github.com/armon/consul&#45;api@v0.0.0&#45;20180202201655&#45;eb2c6b5be1b6</text>
</g>
<!-- github.com/spf13/viper@v1.3.2&#45;&gt;github.com/armon/consul&#45;api@v0.0.0&#45;20180202201655&#45;eb2c6b5be1b6 -->
<g id="edge30" class="edge">
<title>github.com/spf13/viper@v1.3.2&#45;&gt;github.com/armon/consul&#45;api@v0.0.0&#45;20180202201655&#45;eb2c6b5be1b6</title>
<path fill="none" stroke="#000000" d="M2741.676,-145.2576C2744.4809,-144.8149 2747.2614,-144.3939 2750,-144 2918.2401,-119.7995 2963.8967,-124.081 3137.4037,-108.0459"/>
<polygon fill="#000000" stroke="#000000" points="3137.7518,-111.5288 3147.3832,-107.1144 3137.1011,-104.5591 3137.7518,-111.5288"/>
</g>
<!-- github.com/coreos/etcd@v3.3.10+incompatible -->
<g id="node27" class="node">
<title>github.com/coreos/etcd@v3.3.10+incompatible</title>
<polygon fill="#00ff00" stroke="#000000" points="3763.5,-108 3522.5,-108 3522.5,-72 3763.5,-72 3763.5,-108"/>
<text text-anchor="middle" x="3643" y="-86.9" font-family="Times,serif" font-size="12.00" fill="#000000">github.com/coreos/etcd@v3.3.10+incompatible</text>
</g>
<!-- github.com/spf13/viper@v1.3.2&#45;&gt;github.com/coreos/etcd@v3.3.10+incompatible -->
<g id="edge31" class="edge">
<title>github.com/spf13/viper@v1.3.2&#45;&gt;github.com/coreos/etcd@v3.3.10+incompatible</title>
<path fill="none" stroke="#000000" d="M2741.6544,-145.0947C2744.4655,-144.6986 2747.2532,-144.3316 2750,-144 3084.186,-103.6537 3173.7888,-138.8207 3512.1048,-108.1268"/>
<polygon fill="#000000" stroke="#000000" points="3512.5499,-111.6007 3522.1872,-107.1993 3511.9086,-104.6301 3512.5499,-111.6007"/>
</g>
<!-- github.com/coreos/go&#45;etcd@v2.0.0+incompatible -->
<g id="node28" class="node">
<title>github.com/coreos/go&#45;etcd@v2.0.0+incompatible</title>
<polygon fill="#00ff00" stroke="#000000" points="4032.5,-108 3781.5,-108 3781.5,-72 4032.5,-72 4032.5,-108"/>
<text text-anchor="middle" x="3907" y="-86.9" font-family="Times,serif" font-size="12.00" fill="#000000">github.com/coreos/go&#45;etcd@v2.0.0+incompatible</text>
</g>
<!-- github.com/spf13/viper@v1.3.2&#45;&gt;github.com/coreos/go&#45;etcd@v2.0.0+incompatible -->
<g id="edge32" class="edge">
<title>github.com/spf13/viper@v1.3.2&#45;&gt;github.com/coreos/go&#45;etcd@v2.0.0+incompatible</title>
<path fill="none" stroke="#000000" d="M2741.6494,-145.0519C2744.4619,-144.668 2747.2513,-144.3153 2750,-144 3198.6746,-92.5403 3317.9277,-145.5427 3771.0627,-108.1152"/>
<polygon fill="#000000" stroke="#000000" points="3771.474,-111.5931 3781.1476,-107.2719 3770.8907,-104.6175 3771.474,-111.5931"/>
</g>
<!-- github.com/coreos/go&#45;semver@v0.2.0 -->
<g id="node29" class="node">
<title>github.com/coreos/go&#45;semver@v0.2.0</title>
<polygon fill="#00ff00" stroke="#000000" points="4247.5,-108 4050.5,-108 4050.5,-72 4247.5,-72 4247.5,-108"/>
<text text-anchor="middle" x="4149" y="-86.9" font-family="Times,serif" font-size="12.00" fill="#000000">github.com/coreos/go&#45;semver@v0.2.0</text>
</g>
<!-- github.com/spf13/viper@v1.3.2&#45;&gt;github.com/coreos/go&#45;semver@v0.2.0 -->
<g id="edge33" class="edge">
<title>github.com/spf13/viper@v1.3.2&#45;&gt;github.com/coreos/go&#45;semver@v0.2.0</title>
<path fill="none" stroke="#000000" d="M2741.6464,-145.0256C2744.4598,-144.6492 2747.2501,-144.3052 2750,-144 3317.5941,-81.0048 3468.5053,-162.8132 4040.098,-108.1068"/>
<polygon fill="#000000" stroke="#000000" points="4040.6321,-111.5715 4050.2488,-107.1252 4039.9583,-104.604 4040.6321,-111.5715"/>
</g>
<!-- github.com/fsnotify/fsnotify@v1.4.7 -->
<g id="node30" class="node">
<title>github.com/fsnotify/fsnotify@v1.4.7</title>
<polygon fill="#c0c0c0" stroke="#000000" points="4454.5,-108 4265.5,-108 4265.5,-72 4454.5,-72 4454.5,-108"/>
<text text-anchor="middle" x="4360" y="-86.9" font-family="Times,serif" font-size="12.00" fill="#000000">github.com/fsnotify/fsnotify@v1.4.7</text>
</g>
<!-- github.com/spf13/viper@v1.3.2&#45;&gt;github.com/fsnotify/fsnotify@v1.4.7 -->
<g id="edge34" class="edge">
<title>github.com/spf13/viper@v1.3.2&#45;&gt;github.com/fsnotify/fsnotify@v1.4.7</title>
<path fill="none" stroke="#000000" d="M2741.6449,-145.0113C2744.4586,-144.639 2747.2495,-144.2997 2750,-144 3412.6111,-71.7912 3588.4755,-172.8043 4254.882,-108.1235"/>
<polygon fill="#000000" stroke="#000000" points="4255.6129,-111.5687 4265.224,-107.1103 4254.9303,-104.6021 4255.6129,-111.5687"/>
</g>
<!-- github.com/hashicorp/hcl@v1.0.0 -->
<g id="node31" class="node">
<title>github.com/hashicorp/hcl@v1.0.0</title>
<polygon fill="#00ff00" stroke="#000000" points="4649.5,-108 4472.5,-108 4472.5,-72 4649.5,-72 4649.5,-108"/>
<text text-anchor="middle" x="4561" y="-86.9" font-family="Times,serif" font-size="12.00" fill="#000000">github.com/hashicorp/hcl@v1.0.0</text>
</g>
<!-- github.com/spf13/viper@v1.3.2&#45;&gt;github.com/hashicorp/hcl@v1.0.0 -->
<g id="edge35" class="edge">
<title>github.com/spf13/viper@v1.3.2&#45;&gt;github.com/hashicorp/hcl@v1.0.0</title>
<path fill="none" stroke="#000000" d="M2741.6437,-145.001C2744.4578,-144.6316 2747.2491,-144.2958 2750,-144 3504.2504,-62.905 3704.2781,-184.6868 4462.2083,-108.0863"/>
<polygon fill="#000000" stroke="#000000" points="4462.6837,-111.5561 4472.2774,-107.0604 4461.9741,-104.5922 4462.6837,-111.5561"/>
</g>
<!-- github.com/magiconair/properties@v1.8.0 -->
<g id="node32" class="node">
<title>github.com/magiconair/properties@v1.8.0</title>
<polygon fill="#00ff00" stroke="#000000" points="820,-108 604,-108 604,-72 820,-72 820,-108"/>
<text text-anchor="middle" x="712" y="-86.9" font-family="Times,serif" font-size="12.00" fill="#000000">github.com/magiconair/properties@v1.8.0</text>
</g>
<!-- github.com/spf13/viper@v1.3.2&#45;&gt;github.com/magiconair/properties@v1.8.0 -->
<g id="edge36" class="edge">
<title>github.com/spf13/viper@v1.3.2&#45;&gt;github.com/magiconair/properties@v1.8.0</title>
<path fill="none" stroke="#000000" d="M2574.4499,-145.1324C2571.2653,-144.711 2568.1071,-144.3305 2565,-144 1800.9791,-62.7405 1599.5902,-173.8337 830.5213,-108.0579"/>
<polygon fill="#000000" stroke="#000000" points="830.568,-104.549 820.3041,-107.1765 829.9663,-111.5231 830.568,-104.549"/>
</g>
<!-- github.com/mitchellh/mapstructure@v1.1.2 -->
<g id="node33" class="node">
<title>github.com/mitchellh/mapstructure@v1.1.2</title>
<polygon fill="#00ff00" stroke="#000000" points="1059.5,-108 838.5,-108 838.5,-72 1059.5,-72 1059.5,-108"/>
<text text-anchor="middle" x="949" y="-86.9" font-family="Times,serif" font-size="12.00" fill="#000000">github.com/mitchellh/mapstructure@v1.1.2</text>
</g>
<!-- github.com/spf13/viper@v1.3.2&#45;&gt;github.com/mitchellh/mapstructure@v1.1.2 -->
<g id="edge37" class="edge">
<title>github.com/spf13/viper@v1.3.2&#45;&gt;github.com/mitchellh/mapstructure@v1.1.2</title>
<path fill="none" stroke="#000000" d="M2574.4484,-145.1457C2571.2643,-144.7205 2568.1066,-144.3356 2565,-144 1906.7166,-72.8848 1732.7836,-164.9297 1070.0806,-108.1171"/>
<polygon fill="#000000" stroke="#000000" points="1070.0607,-104.6024 1059.796,-107.2269 1069.4569,-111.5763 1070.0607,-104.6024"/>
</g>
<!-- github.com/pelletier/go&#45;toml@v1.2.0 -->
<g id="node34" class="node">
<title>github.com/pelletier/go&#45;toml@v1.2.0</title>
<polygon fill="#00ff00" stroke="#000000" points="1268.5,-108 1077.5,-108 1077.5,-72 1268.5,-72 1268.5,-108"/>
<text text-anchor="middle" x="1173" y="-86.9" font-family="Times,serif" font-size="12.00" fill="#000000">github.com/pelletier/go&#45;toml@v1.2.0</text>
</g>
<!-- github.com/spf13/viper@v1.3.2&#45;&gt;github.com/pelletier/go&#45;toml@v1.2.0 -->
<g id="edge38" class="edge">
<title>github.com/spf13/viper@v1.3.2&#45;&gt;github.com/pelletier/go&#45;toml@v1.2.0</title>
<path fill="none" stroke="#000000" d="M2574.4467,-145.1612C2571.2631,-144.7318 2568.1059,-144.3417 2565,-144 1999.1011,-81.7487 1848.5862,-164.0037 1278.8175,-108.0977"/>
<polygon fill="#000000" stroke="#000000" points="1278.9956,-104.5983 1268.6991,-107.0947 1278.3051,-111.5642 1278.9956,-104.5983"/>
</g>
<!-- github.com/spf13/afero@v1.1.2 -->
<g id="node35" class="node">
<title>github.com/spf13/afero@v1.1.2</title>
<polygon fill="#00ff00" stroke="#000000" points="1453.5,-108 1286.5,-108 1286.5,-72 1453.5,-72 1453.5,-108"/>
<text text-anchor="middle" x="1370" y="-86.9" font-family="Times,serif" font-size="12.00" fill="#000000">github.com/spf13/afero@v1.1.2</text>
</g>
<!-- github.com/spf13/viper@v1.3.2&#45;&gt;github.com/spf13/afero@v1.1.2 -->
<g id="edge39" class="edge">
<title>github.com/spf13/viper@v1.3.2&#45;&gt;github.com/spf13/afero@v1.1.2</title>
<path fill="none" stroke="#000000" d="M2574.4447,-145.1799C2571.2616,-144.7452 2568.1051,-144.3489 2565,-144 2080.9166,-89.6011 1951.1294,-162.261 1463.763,-108.0938"/>
<polygon fill="#000000" stroke="#000000" points="1463.9767,-104.5959 1453.6484,-106.9572 1463.1949,-111.5521 1463.9767,-104.5959"/>
</g>
<!-- github.com/spf13/cast@v1.3.0 -->
<g id="node36" class="node">
<title>github.com/spf13/cast@v1.3.0</title>
<polygon fill="#00ff00" stroke="#000000" points="585.5,-108 424.5,-108 424.5,-72 585.5,-72 585.5,-108"/>
<text text-anchor="middle" x="505" y="-86.9" font-family="Times,serif" font-size="12.00" fill="#000000">github.com/spf13/cast@v1.3.0</text>
</g>
<!-- github.com/spf13/viper@v1.3.2&#45;&gt;github.com/spf13/cast@v1.3.0 -->
<g id="edge40" class="edge">
<title>github.com/spf13/viper@v1.3.2&#45;&gt;github.com/spf13/cast@v1.3.0</title>
<path fill="none" stroke="#000000" d="M2574.4509,-145.1226C2571.2661,-144.7039 2568.1075,-144.3266 2565,-144 1697.3919,-52.8032 1467.3537,-201.1171 595.8068,-107.9516"/>
<polygon fill="#000000" stroke="#000000" points="596.1643,-104.47 585.8471,-106.8795 595.415,-111.4298 596.1643,-104.47"/>
</g>
<!-- github.com/spf13/jwalterweatherman@v1.0.0 -->
<g id="node37" class="node">
<title>github.com/spf13/jwalterweatherman@v1.0.0</title>
<polygon fill="#00ff00" stroke="#000000" points="1704.5,-108 1471.5,-108 1471.5,-72 1704.5,-72 1704.5,-108"/>
<text text-anchor="middle" x="1588" y="-86.9" font-family="Times,serif" font-size="12.00" fill="#000000">github.com/spf13/jwalterweatherman@v1.0.0</text>
</g>
<!-- github.com/spf13/viper@v1.3.2&#45;&gt;github.com/spf13/jwalterweatherman@v1.0.0 -->
<g id="edge41" class="edge">
<title>github.com/spf13/viper@v1.3.2&#45;&gt;github.com/spf13/jwalterweatherman@v1.0.0</title>
<path fill="none" stroke="#000000" d="M2574.4402,-145.2184C2571.2584,-144.773 2568.1034,-144.3639 2565,-144 2192.3203,-100.298 2092.7017,-142.064 1714.7718,-108.0057"/>
<polygon fill="#000000" stroke="#000000" points="1714.9293,-104.5056 1704.6524,-107.0817 1714.2927,-111.4766 1714.9293,-104.5056"/>
</g>
<!-- github.com/stretchr/testify@v1.2.2 -->
<g id="node38" class="node">
<title>github.com/stretchr/testify@v1.2.2</title>
<polygon fill="#00ff00" stroke="#000000" points="541,-36 361,-36 361,0 541,0 541,-36"/>
<text text-anchor="middle" x="451" y="-14.9" font-family="Times,serif" font-size="12.00" fill="#000000">github.com/stretchr/testify@v1.2.2</text>
</g>
<!-- github.com/spf13/viper@v1.3.2&#45;&gt;github.com/stretchr/testify@v1.2.2 -->
<g id="edge43" class="edge">
<title>github.com/spf13/viper@v1.3.2&#45;&gt;github.com/stretchr/testify@v1.2.2</title>
<path fill="none" stroke="#000000" d="M2574.4515,-145.1165C2571.2665,-144.6995 2568.1078,-144.3243 2565,-144 2505.5919,-137.8014 456.8809,-150.588 415,-108 397.8611,-90.5717 411.76,-63.9473 426.9936,-44.1729"/>
<polygon fill="#000000" stroke="#000000" points="429.9152,-46.128 433.5174,-36.1643 424.488,-41.7069 429.9152,-46.128"/>
</g>
<!-- github.com/ugorji/go/codec@v0.0.0&#45;20181204163529&#45;d75b2dcb6bc8 -->
<g id="node39" class="node">
<title>github.com/ugorji/go/codec@v0.0.0&#45;20181204163529&#45;d75b2dcb6bc8</title>
<polygon fill="#00ff00" stroke="#000000" points="2073,-108 1723,-108 1723,-72 2073,-72 2073,-108"/>
<text text-anchor="middle" x="1898" y="-86.9" font-family="Times,serif" font-size="12.00" fill="#000000">github.com/ugorji/go/codec@v0.0.0&#45;20181204163529&#45;d75b2dcb6bc8</text>
</g>
<!-- github.com/spf13/viper@v1.3.2&#45;&gt;github.com/ugorji/go/codec@v0.0.0&#45;20181204163529&#45;d75b2dcb6bc8 -->
<g id="edge44" class="edge">
<title>github.com/spf13/viper@v1.3.2&#45;&gt;github.com/ugorji/go/codec@v0.0.0&#45;20181204163529&#45;d75b2dcb6bc8</title>
<path fill="none" stroke="#000000" d="M2574.4242,-145.3465C2571.2468,-144.8652 2568.0971,-144.4137 2565,-144 2354.8627,-115.9306 2298.1737,-126.1569 2083.3159,-108.0953"/>
<polygon fill="#000000" stroke="#000000" points="2083.5569,-104.6032 2073.296,-107.2422 2082.963,-111.578 2083.5569,-104.6032"/>
</g>
<!-- github.com/xordataexchange/crypt@v0.0.3&#45;0.20170626215501&#45;b2862e3d0a77 -->
<g id="node40" class="node">
<title>github.com/xordataexchange/crypt@v0.0.3&#45;0.20170626215501&#45;b2862e3d0a77</title>
<polygon fill="#00ff00" stroke="#000000" points="2483,-108 2091,-108 2091,-72 2483,-72 2483,-108"/>
<text text-anchor="middle" x="2287" y="-86.9" font-family="Times,serif" font-size="12.00" fill="#000000">github.com/xordataexchange/crypt@v0.0.3&#45;0.20170626215501&#45;b2862e3d0a77</text>
</g>
<!-- github.com/spf13/viper@v1.3.2&#45;&gt;github.com/xordataexchange/crypt@v0.0.3&#45;0.20170626215501&#45;b2862e3d0a77 -->
<g id="edge45" class="edge">
<title>github.com/spf13/viper@v1.3.2&#45;&gt;github.com/xordataexchange/crypt@v0.0.3&#45;0.20170626215501&#45;b2862e3d0a77</title>
<path fill="none" stroke="#000000" d="M2574.2778,-145.752C2519.6291,-135.1463 2447.9114,-121.2281 2389.8051,-109.9514"/>
<polygon fill="#000000" stroke="#000000" points="2390.3468,-106.4913 2379.8631,-108.022 2389.0131,-113.3631 2390.3468,-106.4913"/>
</g>
<!-- golang.org/x/crypto@v0.0.0&#45;20181203042331&#45;505ab145d0a9 -->
<g id="node41" class="node">
<title>golang.org/x/crypto@v0.0.0&#45;20181203042331&#45;505ab145d0a9</title>
<polygon fill="#00ff00" stroke="#000000" points="2814.5,-108 2501.5,-108 2501.5,-72 2814.5,-72 2814.5,-108"/>
<text text-anchor="middle" x="2658" y="-86.9" font-family="Times,serif" font-size="12.00" fill="#000000">golang.org/x/crypto@v0.0.0&#45;20181203042331&#45;505ab145d0a9</text>
</g>
<!-- github.com/spf13/viper@v1.3.2&#45;&gt;golang.org/x/crypto@v0.0.0&#45;20181203042331&#45;505ab145d0a9 -->
<g id="edge46" class="edge">
<title>github.com/spf13/viper@v1.3.2&#45;&gt;golang.org/x/crypto@v0.0.0&#45;20181203042331&#45;505ab145d0a9</title>
<path fill="none" stroke="#000000" d="M2658,-143.8314C2658,-136.131 2658,-126.9743 2658,-118.4166"/>
<polygon fill="#000000" stroke="#000000" points="2661.5001,-118.4132 2658,-108.4133 2654.5001,-118.4133 2661.5001,-118.4132"/>
</g>
<!-- golang.org/x/sys@v0.0.0&#45;20181205085412&#45;a5c9d58dba9a -->
<g id="node42" class="node">
<title>golang.org/x/sys@v0.0.0&#45;20181205085412&#45;a5c9d58dba9a</title>
<polygon fill="#c0c0c0" stroke="#000000" points="3129,-108 2833,-108 2833,-72 3129,-72 3129,-108"/>
<text text-anchor="middle" x="2981" y="-86.9" font-family="Times,serif" font-size="12.00" fill="#000000">golang.org/x/sys@v0.0.0&#45;20181205085412&#45;a5c9d58dba9a</text>
</g>
<!-- github.com/spf13/viper@v1.3.2&#45;&gt;golang.org/x/sys@v0.0.0&#45;20181205085412&#45;a5c9d58dba9a -->
<g id="edge47" class="edge">
<title>github.com/spf13/viper@v1.3.2&#45;&gt;golang.org/x/sys@v0.0.0&#45;20181205085412&#45;a5c9d58dba9a</title>
<path fill="none" stroke="#000000" d="M2739.0896,-143.9243C2785.0607,-133.6769 2842.702,-120.828 2890.1866,-110.2432"/>
<polygon fill="#000000" stroke="#000000" points="2891.1583,-113.6126 2900.1572,-108.0207 2889.6352,-106.7803 2891.1583,-113.6126"/>
</g>
<!-- gopkg.in/check.v1@v0.0.0&#45;20161208181325&#45;20d25e280405 -->
<g id="node24" class="node">
<title>gopkg.in/check.v1@v0.0.0&#45;20161208181325&#45;20d25e280405</title>
<polygon fill="#00ff00" stroke="#000000" points="343,-36 35,-36 35,0 343,0 343,-36"/>
<text text-anchor="middle" x="189" y="-14.9" font-family="Times,serif" font-size="12.00" fill="#000000">gopkg.in/check.v1@v0.0.0&#45;20161208181325&#45;20d25e280405</text>
</g>
<!-- gopkg.in/yaml.v2@v2.2.2&#45;&gt;gopkg.in/check.v1@v0.0.0&#45;20161208181325&#45;20d25e280405 -->
<g id="edge28" class="edge">
<title>gopkg.in/yaml.v2@v2.2.2&#45;&gt;gopkg.in/check.v1@v0.0.0&#45;20161208181325&#45;20d25e280405</title>
<path fill="none" stroke="#000000" d="M269.747,-71.8314C256.0611,-62.7074 239.3085,-51.539 224.6173,-41.7449"/>
<polygon fill="#000000" stroke="#000000" points="226.5062,-38.7977 216.2442,-36.1628 222.6233,-44.6221 226.5062,-38.7977"/>
</g>
<!-- github.com/davecgh/go&#45;spew@v1.1.1 -->
<g id="node43" class="node">
<title>github.com/davecgh/go&#45;spew@v1.1.1</title>
<polygon fill="#00ff00" stroke="#000000" points="2790.5,-36 2593.5,-36 2593.5,0 2790.5,0 2790.5,-36"/>
<text text-anchor="middle" x="2692" y="-14.9" font-family="Times,serif" font-size="12.00" fill="#000000">github.com/davecgh/go&#45;spew@v1.1.1</text>
</g>
<!-- github.com/hashicorp/hcl@v1.0.0&#45;&gt;github.com/davecgh/go&#45;spew@v1.1.1 -->
<g id="edge53" class="edge">
<title>github.com/hashicorp/hcl@v1.0.0&#45;&gt;github.com/davecgh/go&#45;spew@v1.1.1</title>
<path fill="none" stroke="#000000" d="M4472.2738,-72.9736C4469.4879,-72.6189 4466.7248,-72.2926 4464,-72 4139.1564,-37.1176 3134.4281,-22.9533 2800.8774,-19.134"/>
<polygon fill="#000000" stroke="#000000" points="2800.7673,-15.6326 2790.7281,-19.0186 2800.6877,-22.6322 2800.7673,-15.6326"/>
</g>
<!-- github.com/spf13/cast@v1.3.0&#45;&gt;github.com/stretchr/testify@v1.2.2 -->
<g id="edge52" class="edge">
<title>github.com/spf13/cast@v1.3.0&#45;&gt;github.com/stretchr/testify@v1.2.2</title>
<path fill="none" stroke="#000000" d="M491.3735,-71.8314C485.154,-63.5386 477.6678,-53.557 470.84,-44.4533"/>
<polygon fill="#000000" stroke="#000000" points="473.61,-42.3133 464.81,-36.4133 468.01,-46.5133 473.61,-42.3133"/>
</g>
<!-- github.com/spf13/cast@v1.3.0&#45;&gt;github.com/davecgh/go&#45;spew@v1.1.1 -->
<g id="edge50" class="edge">
<title>github.com/spf13/cast@v1.3.0&#45;&gt;github.com/davecgh/go&#45;spew@v1.1.1</title>
<path fill="none" stroke="#000000" d="M585.8503,-73.1495C588.9334,-72.7233 591.9913,-72.3371 595,-72 985.9438,-28.2003 2210.4787,-19.8687 2583.2427,-18.3349"/>
<polygon fill="#000000" stroke="#000000" points="2583.5034,-21.8339 2593.4891,-18.2935 2583.4751,-14.834 2583.5034,-21.8339"/>
</g>
<!-- github.com/pmezard/go&#45;difflib@v1.0.0 -->
<g id="node44" class="node">
<title>github.com/pmezard/go&#45;difflib@v1.0.0</title>
<polygon fill="#00ff00" stroke="#000000" points="761,-36 559,-36 559,0 761,0 761,-36"/>
<text text-anchor="middle" x="660" y="-14.9" font-family="Times,serif" font-size="12.00" fill="#000000">github.com/pmezard/go&#45;difflib@v1.0.0</text>
</g>
<!-- github.com/spf13/cast@v1.3.0&#45;&gt;github.com/pmezard/go&#45;difflib@v1.0.0 -->
<g id="edge51" class="edge">
<title>github.com/spf13/cast@v1.3.0&#45;&gt;github.com/pmezard/go&#45;difflib@v1.0.0</title>
<path fill="none" stroke="#000000" d="M544.113,-71.8314C564.7512,-62.2446 590.2484,-50.4008 612.0673,-40.2655"/>
<polygon fill="#000000" stroke="#000000" points="613.5734,-43.4251 621.1682,-36.038 610.6244,-37.0766 613.5734,-43.4251"/>
</g>
</g>
</svg>
